<svg xmlns="http://www.w3.org/2000/svg" viewBox="0 0 187.5 156.06">
  <defs>
    <style>
      .cls-1 {
        fill: #c073ea;
      }
    </style>
  </defs>
  <title>Asset 5</title>
  <g id="Layer_2" data-name="Layer 2">
    <g id="Layer_1-2" data-name="Layer 1">
      <g>
        <path class="cls-1" d="M119.45,2.16l.82.22,3.21.75.07,0,1.49.37.11.08,2,1.12.36.35.54.13.07.06,1.81.9.89.74h0l.11,0,1.43.39.55.42L134.83,9l.07.09.13,0h0l.19.06.87.33.65.58,1.09.66.18.46.06.05h0l0,0,.2.18v0l0,0,.51.27.6.55.59.27.34.25.08,0,.2.18.18.13,0,0,.15.13,1,.64.6.71.37.37,0,.12.17.11.72.84.05.24.25.18,0,.14.17.28.63.48.66.47v0l0,0,.18,1.18.31.23.15.86.27.29.12.65v.5l.36,2.23-1.36,1.91-2.32.38-.73-.27-.87-.46-.11-.24-1.08-.75v-.06l0,0-.12-.73-.29-1.32-1.28-.9-.35-.55-.45-.43-.35-.24-.06-.16-.36-.19,0,0-.53-.2-.24-.13-.33,0-1.46-.68-.63-.47-.93-.35-.53-.45-1.2-.19-.38-.07L128.84,16v0l-.81-.14-.28,0-1.18-.45-.87-.48-.23-.25-.5-.25-.17-.13-.66-.15h-.07l-2.23-1.22-.3-.3-.17,0h-.07l-3.21-.76-.83-.17-.13,0-5.66-1.32-2.88.26-1.48-.34-.68.1-.8,0-.26.08-1.14-.07-1.26.3h-2.24l-.9-.21-.74.08-1,.35H95.85l-1.36.35h-.3l-.21.1-2.48.38L89.4,12h-1l-.37.11-.46,0-.76.5-1.14.2-.5.51-2,.47H83.1l-.09,0-2.4.48-2.15.94-2,1-.61.07-.76.39L73.34,17l-.91.7-.85.18-.5.56-3,1.11-2.5,1.1-2.34,1.21-.21,0L63,22,60.8,23l-2.18,1.76-.49.11-.33.43-2.86,1.52-.21,0-.1.13L52.19,28l-2,1.26L49,30.62l-.56.17-.53.75-3.14,2-2.68,2-2.54,2.13-.1,0-.08.12-2,1.52-2.15,2.09-.13,0L35,41.6l-2.33,2-.16,0-.12.18L31,44.89l-1.4,2.18-.29.24-.23.44L27,50.13l-.9.58-.31.44-1.4.88-.81,1.35-.35.29-.28.54-1.73,1.94L20,58.2l-.36.31-.29.55-1.67,1.86h0L16.41,62.3,16,63.46l-.38,1.74,0,.12h0l-.44,1.24L14.1,68.79l-.68,2-.88,3.72L12.41,76l.13,1.7,0,.7,0,.19-.09,1.49.17,1.13.7,1.66,0,.45.28.49L14,85.29l1,2.26.05.5.33.56.31,1.23.84,1.58,1.27,2h0L18.88,95,20.75,97l.09.33.41.28,1.69,2.27h0l0,0L24,101.35l1.66,1.23.36.48.49.28,2.08,2.23,1.74,1.58L33,108.84l.41.5.62.35,1.55,1.55,2.27,1.49,2.62,1.5,0,0,.09,0,1.8,1.11,2.77.89.15.12,1.08.43,2.75,1.58,2.16,1.17,2.11.5,1.13.37,2.85,1.24,2.93.94,2.73.64,3.35.5.56.11h0l2.64.61,2.42.08h0l4.27.08.67.09.11,0,2.44.32,2.53-.14.22,0,.08,0,3.73-.06h0l3.06-.09,2.47-.36,2.59-.71.49,0,.35-.16,3.2-.47,3-.53,2.61-.9.59,0,.5-.24,2.45-.39,2.58-.88h0l2.76-1h0l0,0,2.84-1h.17l.06-.06,2.33-.74,2-.78,3.14-.23,3.28,2.36.66,4L125,125.82l-2,1.26-.26,0-.14.18-2.32,1.19-2.65,1.4h0l-2.69,1.4-.36.05-.17.2-3,1.23-.5,0-.52.28-2.43.54-2.54,1-.52,0-.53.28-3.56.79h-.26l-.17.08-2.85.45-2.58.76h-.48l-.36.18-3.21.5h-.52l-.25.09-3.43.16h-.19l-.06,0-3.63,0-2.93.21-1.15-.09-.21.05-2.69-.36-4-.07H71.6l-3.07-.1-1.34-.17-3-.71-3.35-.49-.56-.11L57,135.46l-.53-.14L53,134.17l-.06,0-.51-.17-2.6-1.13-2.39-.56-1.64-.62L42.65,130l0,0-.08,0-2.17-1.25-2.86-.93-.18-.14-1.22-.51-2.43-1.49L31,124.05l-.08-.09-.2-.08-3-2-.41-.5-.62-.34-1.54-1.55-2.45-1.61-.29-.35-.5-.26-2.36-2.14-.15-.23-.2-.12-1.9-2-2-1.55-.64-.89-.61-.4-1.67-2.28v0l0,0-1.42-2-2-2.17-.16-.58-.6-.45-1.34-2.22h0L5.47,98l0-.28-.19-.15L4,95.07l-.08-.66-.46-.85-.31-1.42-1-2.25,0-.55-.32-.58-.33-1.52L.7,85.3l-.07-.87-.35-.78L0,81.1.07,80,0,79.68.19,78l0-1.76.08-.83,0-.14L.51,72.8l.12-.63,1-4.47.2-.69,1-2.62.07-.08.15-.45,1-2,.37-1.49h0l.18-.59,1-2.62L6,56.64l.78-1.46,2.17-2.32H9v0l1.29-1.34,1.24-2,.36-.31.28-.52,1.77-1.91,1.27-2,1.4-1.17.48-.67L19,41.73l1.28-1.38L22,37.72,23,37l.45-.67,2.14-1.54L27.67,33,30,30.88l.3-.08.23-.34,2.19-1.53,2.65-2.06.16,0,.11-.17,3-2.07.15,0,.09-.14,2.73-1.64,1.25-1.29.57-.17.49-.67,3-1.78.43-.07.23-.27,2.6-1.11,2.23-1.18,2.33-1.88.72-.17.45-.55L58.6,12.5l2.34-1.21.21,0,.1-.13L64,9.92l.2,0,.08-.1,2.41-.9,1.34-1,.52-.1L70.18,7l2.25-.43,1.47-.73.17,0,.09-.1,2.78-1.23.56-.05.61-.3L81,3.6,82,3.34l1.57-.91L85,2.22l1.85-.46,1.47.18,1.6-.24H90l.08,0,2.34-.25,1.69-.37H95l.37-.12,1.8,0,.47-.19,2.91-.23,1.28.3.86-.21h1l.41-.12,1.34.08,1.08-.16,1.85.07.91.21,2.87-.27h0l7.14,1.67Z"/>
        <path class="cls-1" d="M168.13,1.86l.31,1.92.14.09V4l.19.31.08.46.37.27.4.63,1.43,1,.06.37.6.43.52.12,1.37,1,.45.16,1.45.65.25.25.14.07,1.12.26,1.89,1.1.42.1h0l.88.23,1.12.29,1.36.32.81.16h.08l.44.09.82-.14,1.26,0,0,.36v.08l.06.7.16,1.82,0,1.55.56,3h0l.1.5.09.5h0l.08.15-1.73-.4-.85.11L183,20.45l-.09,0-1.19-.31h-.06l-.81-.23-1.36-.32-1.14-.24-.88-.18h-.05L176,18.81l-.07,0-1.83-1.05-.71-.17-1.7-.85-.1-.08-.54-.25-.5-.11-1.29-.93L168,15.06l-2.56-1.85,0-.18-.15-.1-.22-.54-1.1-.79-.05-.29-.26-.19-.34.21h-.07l0,0-.07.06h0l-.27.25-.26.31-.92.3-.78.87-.32.11-.26.23-.36.09-.27.37-.75.42-.42.07-.74.73-1.57.44-.13.19-.56.33-.13.11,0,0-.17.05-.22.13-.41.07-.17.05-.71.75-1.68.51h-.51l-.36.48-.84.46-.6.49-.21.05-.15.21-2.55.42h0l-.07,0-.33,0-.16.22-2.37.39h0l-.89-.22-.09-.06-.05,0-.22,0-.09.06-1.48.24-.3-.07-1.46-2.36.62-.39.55-.76.69-.43,1-1.38.17,0,.72-1,.91-.15.33-.3.54-.08.62-.26.87-.08.15-.21.35-.25,0-.1.28-.13.38-.27.35-.07.12-.05,1.44-1.37.67-.11.75-.26.27-.38,1.09-.7.83-.15.65-.69,1-.29.3-.43.35-.24.08-.08h0l.49-.48.75-.2.54-.63.13-.06h0l.8-.79.28-.08.24-.35.36-.25.1,0,.06-.09.73-.45.09,0L160,4l.45-.55.12,0V3.32l0-.21L162.39.52,165.54,0Z"/>
        <path class="cls-1" d="M186.29,14.71h0l0,.4v.54l0,.63v.37l.24,1.27.11.64.3,1.56.1.54.39.77,0,.08,0,0-.06.65-.08.46-1,1.63-.11.11,0,.1h0l-.38,1.91,0,.14-.6,1-.07.4-.05.23-.71,1.49-.69.88h0l-.12.14-.17.79v.05l-.18.56-.43,1.07-.28,1.33v0h0l-.42,1.9h0L181.78,38v.08l-.31.87-.86,1.74-.88,2h0L179,44.31l-.49,2.42h0L178,49.34l0,.08h0L177.19,53v.06l-.22.68-.89,2.16-.59,2.7v0h0l-.89,4-.66,3.25-.27,3.6-.09.59v0l-.82,4v0h0l-.83,4v3.93l-.06.54,0,.09-.53,4.61-.1.55h0l-1,4.37-.64,3.86-.18,4.84,0,.35,0,.06-.45,4.12-.11.66-.74,3.18,0,3.58-.14,1.3-.73,3.11-.21,3.7,0,.26v0l-.45,4.12-.11.67-.79,3.4-.19,2.37.22,2.85-.12,1.68-.62,2.63-.13,2.46h0l-.13,2.68v0h0l-.14,2.69-.13,1-.35,1.47.05,2.29h0l0,.26,0,0-1.18.46-4.27,1.64-.1.09-2,1.86h0l-.67,0h-.14l-1.57-.05-.79,0h0l-.05-.16,0-2.1-.08-1.56,0-.19,0-.07,0-3,.15-1.32.39-1.66.1-2.2v0h0l.13-2.69,0-.13v0l.22-2.93.13-.86.54-2.31-.15-2.49.05-.62,0-.15.24-3.17.13-.84L156,124l.44-3.68.22-4,.14-1,.69-3,0-3.62.14-1.21.82-3.51.43-3.66.23-5,.1-.7v0l.81-4.31.05-.24v0l1-4.24.56-4.06.1-4.18.14-1,0-.13,1.18-4.49h0l1-3.72.49-3.58.08-.45,0-.13.93-3.49,1-4h0l.77-3.07,0,0,.25-.75,1-2.11.79-3.16h0l0-.06.69-2.59h0l.75-2.82,0,0,.32-.83,1.06-2h0l1-2h0l.72-1.34.3-1.18.48-1.88h0l.42-1.65v0l.19-.58.46-1.06.33-1.34,0-.06.79-1.54.72-.84h0l.17-.19.1-.37.86-1.08.29-1.06h0l.08-.25.25-.7.34-.4.56-.95.79-.76.25-.06h0l.29-.68.49-.24.31-.36.17-.47,0,0,.1-.26.22-.44.22-.1.45-.73.42-.34h0l.07-.25,0,0,.12-.45,1.76-1Z"/>
        <path class="cls-1" d="M110.2,45.85l.89.26.1.08.74.21h0l.1,0,.59.19.75.61.2.07.06.06.4.14h0l.35.13,1.5,1.29.75.54,0,.12.11.09,0,.32.66.48,0,.11.09.07.15,1.09.07,0,0,.09L118,52v.11l0,0,0,.16.33.24v.11l.1.09.31,2.35-.14.21-.09.37-.06.22,0,.19-.12.48-.06.22-.09.3-1,1.21-.42.59h-.06l0,0-.45.07-.21.3H116l0,0-.34,0h0l-2.33.39-1.91-1.38-.07-.4-.05,0-.14-1.17h0l-.19-.26,0-.28v-.08l-.16-.11-.38-.07-.57-.35h0l-.76-.14-.12,0-.27,0-.85.2-.58-.08-.15,0h0l-.89-.15-.31-.06-.73-.17-2.09.15-.3-.06-.07,0-1.31-.33L101,55l-2.71.12-.7-.17h-.21l-1,.41-.93.08-.54,0-.19.22-1,.38-1.18.08-.77.24h-.48l-1.56.26-.6.22-.72,0-.6.25-.15,0-.34.14-.8.5-.65.11-1.23.58-1.6.24h-.19l-.53.56-.9.26-.73.87L79.37,61,79,61l-.16.17-.5.15,0,.09-2.32,2.13-.37,0-.15.16-.63.2-.09.07-.39.56-1.84,1.14h-.07l0,0-1.06.63-.37.22-.57.69-.34.55-.63.54L69,69l-1,.82L66.93,71l-.49.15-.43.59-.42.26-.14.17-.34.55-.48.41-.33.58-.72.67-.43.45-.21.48-.08.15,0,.1h0l-1,1.83-.73,3.09,0,.13-.21.82-.16.67.12,2.08,0,.08.22.28v.17l.08.07.19.59.41.69v0l.2.22.63.35.36.37.37.22.17.21.36.18.78.65.56.35.06.07.15.06.58.41.28.07,1.44.59.15.09,9.89,2.32,1.13.24.12,0,1.27.3,1,0,1.08.13,1,.23,1.1-.1,1.6.11h0l.11,0,1.18.31.19.14,2.06,1.15,1,1,1,3.39-1.31,2-1.11.86-.22,0-.15.21L85,103l-.47-.1-1.15.1-1.6-.1-1.35-.32-1.09,0-.9-.13L76.66,102l-.11,0-1.13-.29L64.77,99.18l-1.44-.6-.15-.09-.42-.1h0l-1.68-.75-1.25-.87-.72-.44-.17-.21L58.58,96l-.78-.66L57.24,95l-.46-.54-.6-.36L56,93.84,54.2,92.45l-.88-.63v-.06l-.05,0L53,90.17,52.88,90l-.08-.46-.23-.25-.12-.1,0-.06-.17-.18-.67-.47-.07-.35-.3-.34L51,85.53l-.13-.64,0-.22,0-.26L51,83.18l-.18-2.3.41-1.72.17-.83,0-.13,1-4.17,1.17-2L54,70.92l.53-.85,0,0,.76-1.4,1.26-1.3.08,0,.07-.12.32-.3.18-.29.21-.19.18-.35L58.51,65l.59-.19.59-.82.58-.36.84-.86.19-.06.17-.27L62,62l.1-.17.22-.18.17-.36,1.33-1.6.59-.19.59-.82,1-.65,1-.68.06,0,0,0,1.16-.72,1.79-1.6.35,0,.14-.15.11,0,.45-.72,1.18-1,1-.24.61-.67,1.47-.49.31-.14.59-.6.54-.15.44-.6,1.11-.67,1-.15,1.65-.56H82l.22,0,.22-.14.41-.06.22-.27,1.39-.61.78-.07.78-.33.3,0,.38-.14L87.88,47l.86-.15,1.87-.59H91l.46-.28,3-.49.07,0,.27,0,.45-.07.09,0,1.51-.48,1.53,0,.81.11.39-.12,2.23-.1.3-.06.89.18.18,0,.26.06.73.16,2.13-.12,1.78.42.3.08.89.27h0l.63-.07Z"/>
        <path class="cls-1" d="M119.51,55.07l.58.25.58.54,1,.6.19.2L122,57l.4.29,0,.16h0l0,.27.48,3-.08.12.09.51-.21.89-.22.62-.13.29-.35.17-.8,1.1-1.12.19-.52.87-.31.13-1.44,2.5-.06.06-.24.52-.57.58-.58,1-.82.77-.45.12h0l-.12.13-.2.48-1,1.68-.23.19-.18.37-.09.12-.07.3h0l-1.72,2.78-1,.81-.66.68-.47.77-.62,1.6-.55.6-.73,1.27-.36.34-.9,1.33-.48,1.07-.19.2-.26.59-.38.54-.19.81-1.5,2.43-.27,1.19v0l-.33,1.45-.16.74.22,1.25-.05,2.14h0l0,.07.09.3.12,2.81-2.33,3.24-3.95.65-3.78-3.49L92.19,99l-.12-2.81h0l.1-.44L92,94.52,92,92.38l0-.09.44-1.73.33-1.45v0l.65-2.67.12-.16L95,84l.07-.3.8-1.78.67-1,.46-1,.17-.16.23-.53L98.85,77l.45-.36.19-.33.42-1.07.13-.15.27-.66,1-1.68.39-.32.29-.53,1.26-1.3.19-.06,1-2.09.64-.78.67-1.1.56-1.17L108.78,63h0l0-.08.57-.59.14-.25,0-.12.63-1.26.07-.29.21-.27.14-.29.18-.22,1.13-1.83.43-.17.22-.3.42-.06.47-.24.28-.36.43-.07.39-.42.55-.78.17,0,.12-.15,3.32-.42Z"/>
        <path class="cls-1" d="M103,134.1l.37.13.45.23.58.08,1.33.63.88.67.13.36.61.4.18.27.26.14.47.47.49.38,1.14.67.13.32.85.52.72.89,0,0,1.27.45.08.06.44.17,1.59.85.13.14.32.15,1.26.92.6.13.08,0,.77.26,1.63.76,1,.22h0l2.14.47h0l1.9.42h0l2.1.49,1.26.27,2.07,0h0l2.19,0h2.2l1.95,0,.44,0,.09,0,2.17.24.52.08,1.16.28,1.07-.27,1.76-.52,2-.07H146l1.9.42h.05l1.26.29,2,.07.77.1h0l1.12.24,1.18,0,1.13.1h0l1.9.43h0l1.39.32,1.15.25.07,0,2.65,1.9.39,2.4-4.37,1.69-2,1.87h0l-.06.06-1.14-.27h-.05l-1.29-.32-1.13,0-1.2-.1h-.06l-1.22-.31-2-.06-.85-.12-1.66-.39h0l-.8-.19-.77.23h-.22l-.07.07-2.1.48h-1.89l-1.94-.45-1.68-.22-1.68,0-.15,0h0l-2.22,0h0l-2.19,0-.12,0h0l-2.45-.1-.79-.11h-.08l-1.61-.41-2.1-.49,0,0-1.9-.46h0l-2.13-.53h0l-1.42-.36,0,0-.76-.27-1.64-.82-1-.26-.07,0-1.36-.65L111,148.44l-1-.61-1.57-.61-.29-.26-.84-.43-.83-.74-.09-.27-.41-.27-.54-.71-.75-.49-.06-.13-.37-.19-.83-.74,0-.16-.28-.17-.47-.54-.29-.28-.13-.47-.11-.06-.18-.16-.24-.18,0-.07-.37-.34,0-.08-.45-.42-.53-.39,0-.14-.11-.1-.17-1.36,0,0-.09-.54-.09-.16-.31-1.87,1-.6.37-.54.65-.1,1-.61Z"/>
      </g>
    </g>
  </g>
</svg>
