<svg xmlns="http://www.w3.org/2000/svg" viewBox="0 0 176.22 157.76">
  <defs>
    <style>
      .cls-1 {
        fill: #5155df;
      }
    </style>
  </defs>
  <title>Asset 3</title>
  <g id="Layer_2" data-name="Layer 2">
    <g id="Layer_1-2" data-name="Layer 1">
      <g>
        <g>
          <path class="cls-1" d="M99,12.53l.85,0h3.34l1.52,0,.13,0,2.23.63.43.25h.55l.09,0,1.94.47,1,.51h.12l1.47.05.63.28,2.08.74.09.07h.15l.19,0,.92.12.76.41,1.2.4.28.4.07,0h0l0,0,.23.13,0,0,0,0,.56.14.7.4.63.13.38.16h.08l.24.12.21.09,0,0,.17.09,1.15.38.74.55.45.28.06.11.19.06.89.66.11.22.28.11,0,.13.23.24.72.32.74.31v0h0l.44,1.09.36.15.33.81.33.21.27.6.1.48.86,2.08-.89,2.16-2.15.89-.76-.1L126,30l-.17-.21-1.21-.48,0,0-.05,0-.28-.67-.57-1.21-1.45-.59-.46-.45-.54-.32-.39-.15-.09-.13-.4-.11,0,0-.55-.07-.26-.06-.33,0-1.58-.33-.71-.31-1-.12-.61-.33-1.21.1h-.37l-2.54-.78h0l-.81,0h-.28l-1.25-.17-.95-.26-.28-.19-.54-.13-.19-.09h-.74l-2.43-.67-.37-.22H99.87l-.85,0h-5.9L90.4,23H88.89l-.63.26-.78.15-.24.13-1.12.19L85,24.29l-2.16.52h-.92l-.69.24-.92.58-2.13.51-1.24.64-.29.07-.18.15-2.31.93-1.93.89-.94.21-.34.19-.45.08-.62.65-1,.46-.38.6-1.79.9-.13,0-.08.06-2.21,1-1.87,1.4-1.7,1.42-.57.21-.65.55-1.61.72-.73.89-.78.37-.35.65L53.33,41l-2.18,1.62-2,1.71-.2.07-.07.14L47,45.92l-1.71,2.19-.45.22-.22.49-2.42,2.12L42,51l-.06.15-2.12,1.62-1.62,1.66L37.39,56l-.51.3-.34.84L34,59.76l-2.15,2.51-2,2.64-.1,0,0,.13L28.13,67l-1.6,2.51-.12.07-.07.2-1.8,2.46-.15.08-.07.2-1.14,1.36-.85,2.42-.23.3-.12.48-1.51,2.77-.73.77-.2.49-1.16,1.18-.48,1.48-.26.36-.15.59L16.25,87l-.73,2.26-.28.37-.15.6-1.2,2.18h0L13,94l-.11,1.2,0,1.77v.12h0l-.15,1.3-.53,2.4-.21,2.08v3.79l.22,1.52.51,1.6.1.69.11.18.24,1.46.42,1.06,1.06,1.44.14.42.38.41.69,1.32,1.49,2,.16.47.45.48.58,1.12,1.17,1.33,1.67,1.62h0l1.39,1.35,2.25,1.46.16.3.46.17,2.15,1.81v0h0L29.25,130l1.88.81.46.39.53.16,2.52,1.68,2,1.13,2.89,1.05.51.39.68.2L42.6,137l2.54.92,2.88.86,0,0,.1,0,2,.66,2.88.24.17.08,1.14.17,3,.91,2.36.64h2.15l1.17.1,3,.55,3,.26h2.79l3.35-.28.57,0h2.69l2.35-.47h0l4.15-.89.67-.07.1-.05,2.43-.24,2.41-.71.22,0,.08,0,3.59-.9h0l2.95-.78,2.3-.9,2.35-1.28.46-.12.31-.25,3-1.17,2.78-1.2,2.32-1.46.57-.16L112,131l2.27-.93,2.3-1.44h0l2.44-1.6h0l0,0,2.52-1.62.16,0,0-.08,2.09-1.24,1.78-1.21,3-.93,3.71,1.53,1.53,3.71-1.52,3.69-1.67,1.68-.23.1-.1.21-2,1.67-2.25,1.95,0,0v0l-2.29,2-.33.13-.12.22-2.66,1.89-.48.15-.43.38-2.23,1.07-2.23,1.58-.49.15-.44.4L111.13,146l-.25.05-.14.12-2.66,1.08-2.32,1.32-.46.12-.32.25-3,1.22-.51.1-.22.15-3.28.93-.19,0,0,0-3.49.88-2.8.86-1.13.17-.19.1-2.67.27-3.85.82h-.11l0,0-3,.6-1.33.13H76.1l-3.35.28-.56,0H68.85l-.55,0-3.66-.3-.07,0-.54-.05-2.76-.5H58.83l-1.72-.23-3.39-.93,0,0h-.08l-2.38-.71-3-.25-.21-.1-1.3-.21-2.68-.9-2.94-.88-.1-.07-.21,0-3.38-1.23-.51-.39-.69-.2-1.84-1.15-2.73-1-.36-.28-.54-.14L28,144.39l-.2-.2-.23-.06-2.29-1.53-2.28-1-.83-.72-.67-.25-2.13-1.83h0l-1.83-1.58L15.1,135.5l-.28-.52-.69-.3-1.79-1.84h0L10.54,131l-.11-.25-.22-.11L8.43,128.5l-.22-.62-.64-.72-.63-1.31L5.51,123.9l-.17-.52-.44-.49-.67-1.39L3,119.79,2.78,119l-.51-.68-.85-2.4-.2-1.13-.12-.24L.89,112.8l-.44-1.69-.11-.82-.06-.13L0,107.75l0-.64v-4.55l0-.71.33-2.76,0-.08,0-.48.47-2.15,0-1.52v0l0-.61.34-2.75.31-.59L2.1,89.3l1.56-2.73,0,0v0l.94-1.59.75-2.2.28-.37.15-.57,1.27-2.25.77-2.25,1.09-1.45.32-.76,1.57-1.54.92-1.63L12.85,69l.76-1,.28-.75,1.72-2,1.66-2.16,1.81-2.59.26-.14.15-.39,1.77-2,2.1-2.59.15-.07.06-.18,2.48-2.7.14-.06.06-.14,2.27-2.22.91-1.52.51-.29.33-.76,2.45-2.4.41-.16.16-.31L35.55,43l1.89-1.65L39.26,39l.66-.32.32-.63,2.29-1.73,2-1.7.2-.07.07-.14,2.42-1.82.18-.06.07-.11L49.58,31l1.07-1.26.48-.22,1.35-1.15,2.08-.92,1.26-1.05.16-.06.05-.11,2.42-1.81.53-.18.52-.43,2.63-1.15,1-.5,1.3-1.24,1.26-.5,1.68-.87,1.47-.17,1.49-.59.15,0,.08,0,2.2-.77,1.55-.74.81-.19.33-.2,1.76-.36.41-.29,2.76-.88h1.3l.79-.39,1-.25.38-.21,1.31-.22,1-.4L88,13.44h.92l2.72-.91H99Z"/>
          <path class="cls-1" d="M146,1.21,146.75,3l.16.07,0,.06.26.26.18.43.42.18.53.52,1.62.67.14.34.67.28h.54l1.54.64.47,0,1.55.3.3.19.15,0h1.14l2.08.63H159l.9,0,1.15,0h1.39l.82,0h.52l.77-.32,1.22-.25.05.36,0,.07.22.67.56,1.72.33,1.5,1.22,2.78h0l.21.46.2.46h0l.11.13h-1.76l-.8.31-1.48.27h-.1l-1.22,0h-.06l-.83,0H161l-1.16,0-.88,0H159l-1.52,0h-.08l-2-.61h-.72l-1.84-.43-.12-.06-.58-.12h-.5l-1.46-.6h-1.27l-2.9-1.2-.08-.18-.17-.06-.33-.46-1.25-.52-.11-.27-.29-.13-.28.28-.07,0,0,0-.05.08h0l-.22.3-.18.36-.81.5-.56,1-.28.18-.2.29-.33.17-.18.41-.62.58-.4.16-.55.88-1.41.78-.09.21-.47.45-.09.13,0,0-.15.09-.18.18-.38.15-.16.09-.51.89-1.52.87-.48.13-.24.54-.71.64-.47.61-.19.1-.1.23-2.37,1h0l-.06,0-.32.09-.1.25-2.21.92h-.92l-.1,0,0,0-.23,0-.07.07-1.38.57h-.3l-2-2,.52-.52.36-.86.57-.57.64-1.56L124,20l.46-1.13.85-.35.25-.37.51-.2.54-.39.82-.27.09-.24.28-.31,0-.12.25-.19.3-.34.32-.15.1-.08,1.09-1.64.62-.26.67-.42.17-.43.9-.93.77-.32.47-.82.89-.51.19-.48.29-.31,0-.09,0,0,.36-.57.67-.38.39-.72.11-.09v0l.59-.94.26-.14.15-.4.29-.32.09,0,0-.09.61-.61.08,0,0-.18.32-.62.1-.07V4.33L139,4.14l1.21-2.93L143.09,0Z"/>
          <path class="cls-1" d="M166.49,9.53h0l.12.37.12.52.13.62.08.36.51,1.17.26.59.64,1.45.22.49.55.66.06.06,0,0,.08.64,0,.46-.55,1.8-.09.13V19h0l.08,1.93v.14l-.37,1.05,0,.41v.24l-.35,1.6-.47,1h0l-.07.17v.85l-.05.58-.17,1.13,0,1.35v0h0l0,1.93h0l0,1.68v.08l-.1.91L166.88,36l-.4,2.12h0l-.32,1.72.07,2.45h0l.08,2.65V45h0l.06,3.63v.07l-.06.7-.37,2.29,0,2.75h0l.05,4.07.09,3.3.56,3.53,0,.6v0l.12,4.1v0h0l.11,4.08.9,3.8.07.53.05.09.53,4.57,0,.55h0l0,4.45.26,3.88.92,4.72,0,.34,0,.06.51,4.09,0,.66v3.24l.84,3.46.16,1.29V113l.64,3.63,0,.26,0,0,.5,4.08,0,.67v3.47l.36,2.34.86,2.7.26,1.65v2.69l.43,2.4h0l.47,2.62v0h0l.48,2.64.09,1v1.49l.57,2.21h0l.07.24,0,0-1,.71-3.75,2.56-.08.11-1.51,2.25h0l-.63.19-.14,0-1.52.3-.78.16h0v0l-.09-.14-.45-2-.43-1.49,0-.19,0-.06-.7-2.87-.16-1.3v-1.7l-.39-2.15v0h0l-.48-2.63,0-.13v0l-.45-2.88-.07-.86v-2.36l-.71-2.37-.09-.61-.08-.14-.48-3.12-.07-.83V122l-.41-3.66-.69-3.91-.09-.95v-3L160,107l-.14-1.21v-3.57l-.41-3.65-.91-4.86-.06-.7,0,0-.19-4.35v-.29l0-4.33-.38-4.06-.85-4.06-.11-1v-.13l.13-4.61h0l.12-3.82-.34-3.57,0-.45v-.14l.11-3.59,0-4.07h0l.05-3.15v0l.08-.79.45-2.25,0-3.23h0V44.9l.08-2.67h0l.09-2.89v0l.12-.88.57-2.19h0l.54-2.15h0l.39-1.46,0-1.21,0-1.93h0l0-1.7v0l.06-.6.2-1.13,0-1.37,0-.06.41-1.68.51-1h0l.11-.21,0-.38.58-1.25,0-1.09h0v-.26l.09-.73.24-.47.32-1,.6-.91.22-.12h0l.13-.72.41-.35.22-.42.06-.49,0,0,0-.28.12-.47.19-.15.27-.8.33-.43h0V11l0,0,0-.46,1.46-1.4Z"/>
          <path class="cls-1" d="M113,143.82l.38,0,.49.12.58,0,1.43.3,1,.45.2.32.68.25.24.22.28.07.56.35.57.26,1.24.39.21.28.93.31.9.69,0,0,1.34.15.08,0,.47.06,1.73.46.16.11.34.07,1.42.61.61,0H129l.81.08,1.75.37,1,0h0l2.17,0h0l1.93,0h2.19l1.27,0,2-.42h0l2.12-.47h0l2.11-.5h0l1.87-.47.44-.06.08,0,2.16-.26.52,0h1.19l1-.5,1.58-.9,1.95-.52.08,0h3.26l2-.39.76-.08h1.16l1.13-.33,1.11-.16h0l1.94,0h1.46l1.17,0h.08l3,1.24.92,2.24-3.84,2.62-1.52,2.26h0l-.05.07h-2.53l-1.09.3-1.17.17H165l-1.26,0-2,.4-.84.08h-2.55l-.7.4-.21.06,0,.08-1.92.94-1.83.42h-2l-1.68.17-1.62.41h-.15l0,0-2.16.45h0l-2.12.47-.12,0h0l-2.39.46-.79.08h-.08l-1.65,0h-2.19l-1.93,0h0l-2.18,0h0l-1.45,0h0l-.8-.09-1.77-.42-1,0-.08,0-1.46-.32-1.93-.89-1.16-.35-1.65-.23-.33-.19-.91-.23-1-.52-.15-.24-.46-.17-.68-.57-.84-.3-.09-.11-.4-.11-1-.52-.08-.14-.31-.1-.58-.42-.34-.2-.24-.43-.12,0-.2-.12-.28-.12,0-.06-.43-.24,0-.07-.53-.31-.61-.25-.05-.13-.14-.08-.47-1.27h0l-.21-.51-.13-.13L109.8,146l.81-.8.25-.6.59-.25.81-.81Z"/>
        </g>
        <path class="cls-1" d="M100,56.86l.92,0L101,57l.76,0h.11l.62.05.86.41.2,0,.08,0,.41.05h0l.37,0,1.74.9.85.35,0,.12.11.06.12.3.75.31,0,.1.11,0,.38,1,.09,0,0,.09.13.05,0,.1,0,0,0,.15.37.15,0,.11.12.06.83,2.21-.09.23v1.51l0,.32-.66,1.39-.28.66,0,0,0,.06-.42.16-.13.34-.06,0,0,0-.31.12v0l-2.17.89-2.16-.89-.16-.37,0,0-.41-1.09v0L103,67l0-.29v-.07l-.17-.07-.39,0-.62-.21h0l-.77,0-.11.06h-.27l-.78.38-.58.06h-.17L98.2,67H97.14l-2,.62H93.44l-.26.15-2.59.72h-.71l-.21,0-.84.62-.87.29-.53.09-.14.25-.89.59-1.12.35-.69.4-.47.1-1.45.6-.53.36-.68.2-.52.39-.15,0L80.5,73l-.66.66-.61.26-1,.84-1.49.59-.19,0-.39.66-.81.47-.5,1-1.2.9-.39.13-.11.2-.45.26,0,.1-1.77,2.58-.35.12-.11.19-.55.34-.07.09-.26.62L68,84.61l-.06,0,0,.06-.88.84-.31.3-.4.81-.2.6-.49.67-.23.7-.76,1L63.84,91l-.45.25-.28.67-.34.35-.1.19-.2.61-.37.5-.19.64-.55.82-.31.52L61,96l-.05.15v.12h0l-.61,2v3.28l0,.85v.68l.59,2v.08l.27.22,0,.16.09,0,.32.52.55.58v0l.25.17.68.2.44.27.4.13.22.16.38.09.91.46.61.2.08.06.15,0,.66.26h.29l1.52.25.17.06H79l1.14,0h1.42l1-.22,1.07-.11h1l1-.35,1.58-.26h.1l1.22,0,.21.09,2.26.65,1.18.74,1.69,3.06L93.11,115,92.24,116l-.21.1-.09.24-3.36,1.45H88.1L87,118.2l-1.57.26H84.06l-1.06.19-.9.09H80.16l-1.16,0H68.14l-1.53-.25-.17-.06H66l-1.79-.34-1.4-.56-.8-.27-.22-.16-.37-.09-.91-.45-.62-.2-.57-.43-.66-.21-.23-.16-2-.93-1-.42,0-.05,0,0-.58-1.45-.19-.18-.18-.42-.27-.19L54,111.8l0,0-.2-.14-.76-.3-.14-.32-.37-.26-.71-2.1-.26-.59,0-.23-.07-.24-.2-1.21-.69-2.18v-1.76l0-.84V97.2L51.15,95l.18-1.16.32-.94v0l.43-1.53L53,89.79l.07,0,0-.13.24-.36.11-.33.16-.22.09-.38.62-1.25.53-.32.38-.93.48-.48.62-1,.17-.1.1-.3.43-.57.06-.19.17-.23.09-.38.92-1.85.52-.32.39-.93.87-.86.84-.9.06,0,0-.06,1-1,1.36-2,.33-.11.1-.18.11-.06.27-.8.92-1.23.93-.46.43-.78,1.32-.81.26-.2.44-.72.48-.26.29-.69.92-.89.91-.37,1.47-.92.84-.19.2-.08.19-.19.38-.15.15-.31,1.21-.9.73-.25.68-.5.28-.09.34-.23L78.65,63l.8-.33,1.67-1,.42-.08.37-.37,2.8-1.16.06,0,.25-.08.42-.17h.09l1.35-.82,1.49-.29.81-.09.35-.2,2.13-.6.28-.13.9,0H94l2-.6h2.12l.92.06h0l.59-.2Z"/>
        <path class="cls-1" d="M111.07,63.66l.62.11.68.39,1.12.35.23.15.17.34.44.18.07.16h0l.09.26,1.14,2.74,0,.13.2.48v.91l-.07.64-.06.31-.3.24-.52,1.25-1,.44-.3,1-.27.2-.83,2.74,0,.07-.12.56-.41.7-.34,1.1-.62.93-.41.22h0l-.09.16-.08.51-.62,1.85-.17.24-.1.4-.06.13v.3h0l-1,3.08-.75,1-.48.8-.29.85-.24,1.69-.39.71-.42,1.38-.27.42-.56,1.49-.23,1.14-.14.23-.12.64-.24.6v.83l-.9,2.69v3.49l.5,1.15.44,2.08h0v.08l.15.26.75,2.69-1.51,3.67L100,116.31l-4.45-2.52-.9-1.49-.75-2.7h0v-.45L93.37,108,92.94,106v-.09l0-1.77v-1.52l0-2.73.08-.18.83-2.51v-.3L94.27,95l.43-1.08.22-1.08.12-.2.1-.57.92-2.46.36-.45.11-.36.16-1.14.09-.17.12-.7.61-1.86.3-.4L98,83.9l.92-1.53.18-.1L99.6,80l.45-.89.4-1.21.27-1.27,1.77-2.85h0l0-.09L103,73l.08-.27v-.12l.32-1.37v-.29l.13-.31.08-.32.12-.25.68-2,.38-.27.14-.33.4-.16.39-.33.19-.41.4-.17.28-.5.36-.87.16-.07.09-.16,3.1-1.16Z"/>
      </g>
    </g>
  </g>
</svg>
