<svg xmlns="http://www.w3.org/2000/svg" viewBox="0 0 187.67 173.96">
  <defs>
    <style>
      .cls-1 {
        fill: #ff88d9;
      }
    </style>
  </defs>
  <title>Asset 7</title>
  <g id="Layer_2" data-name="Layer 2">
    <g id="Layer_1-2" data-name="Layer 1">
      <g>
        <path class="cls-1" d="M80.31,22.36l.86-.16,3.28-.73.07,0,1.53-.31.14,0,2.38.12.48.16.56-.11.09,0,2,0,1.15.28h0l.12,0,1.48-.27.69.14,2.26.28.1.05.13,0h0l.19,0,.95-.08.85.24,1.3.13.36.34.08,0h0l.05,0,.26.08,0,0,0,0,.58,0,.8.24h.66l.42.08h.08l.26.07.23,0,0,0,.2.05,1.23.13.87.38.51.18.08.09.21,0,1,.46.15.19.31.06.08.12.28.18.79.16.81.15,0,0h0l.69,1,.39.07.51.73.38.14.4.54.21.46,1.33,1.9L115,32.47l-2,1.38-.79.07-1,0-.2-.17-1.33-.21,0,0h-.06l-.43-.62-.84-1.08-1.58-.26-.57-.35-.6-.2-.42-.07-.12-.12h-.46l-.57.05h-.27l-.33.09-1.65,0-.78-.16-1,.1-.68-.19L98.14,31l-.38.1L95,30.87h0l-.8.23-.28.07-1.28.11-1-.05-.33-.13h-.56l-.21,0-.67.15-.07,0-2.59-.13-.42-.14-.16,0-.08,0-3.28.72-.84.21-.13,0-5.79,1.28L74,34.76l-1.51.33-.58.4-.75.33L71,36l-1.07.44-1,.83-2,1-.92.21-.65.39-.78.79-2,1-1.1.93-.27.13-.15.19-2.11,1.44-1.74,1.33-.89.42-.29.26-.44.18-.48.79L54,47l-.24.69L52.16,49l-.12.06-.07.08-2,1.5-1.56,1.82L47,54.26l-.52.33-.54.7-1.45,1.07L44,57.42l-.7.54-.21.73L40.85,61,39,63.14l-1.61,2.15-.18.12,0,.16-1.57,1.82L34.41,70l-.4.32-.11.54-2,2.66-.18.12,0,.16L30,75.86l-1.26,2-.5,1.73-.44.42-.15.92-2,3.22-1.6,3-1.39,3.08-.09.06v.14l-1.15,2.27-1.05,2.87-.1.09,0,.22L19,98.77l-.13.11,0,.22L18,100.71l-.32,2.62-.17.35v.51l-.89,3.11-.57.94-.09.53L15,110.21l-.16,1.59-.18.42,0,.62-.74,2.55-.22,2.43-.2.44,0,.63-.71,2.45h0l-.51,1.82.15,1.23.43,1.77,0,.12h0l.14,1.33v2.53l.25,2.12.85,3.8.56,1.47.86,1.5.26.67.14.15.57,1.42.66,1,1.38,1.21.23.39.47.33,1,1.17L22.15,147l.27.44.55.38.83,1,1.47,1.07,2,1.26h0l1.7,1,2.58,1,.23.27.5.06,2.55,1.34,0,0h0l1.64.87,2.06.4.54.28.58,0,2.89,1.12,2.3.68,3.13.41.6.28.72,0,2.11.75,2.75.35,3.07.23.05,0h.1l2.15.22,2.93-.39.2,0L63.9,160l3.22.23,2.51.12,2.15-.48,1.2-.16,3.17-.12,3.11-.42,2.79-.62,3.3-1,.56-.15h0l2.7-.6,2.25-1h0l4-1.81.66-.22.08-.07,2.39-.79,2.26-1.24.21-.09.07-.06,3.4-1.7h0l2.78-1.43L108.8,147l2.06-1.81.44-.23.25-.31,2.74-1.84,2.52-1.82,2-2,.53-.29.35-.44,2.08-1.44,2-2h0l2.09-2.14,0,0v0l2.17-2.19.14-.08,0-.09,1.82-1.71,1.51-1.61,2.78-1.6,4.06.72,2.36,3.37-.7,4-1.3,2-.21.15-.05.24-1.6,2.11-1.82,2.46,0,0v0l-1.86,2.48-.3.2-.07.25L130.56,146l-.44.26-.35.48-2,1.57-1.88,2.07-.46.27-.35.49-2.93,2.3-.24.12-.11.14-2.43,1.68-2,1.83-.44.23-.25.32-2.73,1.88-.48.22-.19.2-3.08,1.66-.18.07,0,0-3.3,1.65L104,165l-1.1.43-.17.14-2.62.86-3.67,1.69-.1,0,0,0-2.86,1.27-1.3.43-3.07.68-3.3,1-.56.16-3.35.74-.55.1-3.74.51-.08,0-.55.07-2.88.11-2.44.54-1.78.16-3.6-.18h-.12l-2.55-.19-3,.41-.23-.05L59,174l-2.89-.3L53,173.43l-.11-.05h-.22L49,172.91l-.59-.27-.73,0-2.1-.74-3-.39-.42-.2-.58,0-3.11-.92-.24-.15-.24,0-2.64-1-2.51-.53-1-.54-.73-.1-2.55-1.35v0h0l-2.18-1.19-2.79-1.11-.4-.47-.76-.14-2.2-1.45h0L18,160.78l-.16-.23-.24-.06-2.26-1.74-.37-.57-.79-.58-.92-1.17-1.87-1.64-.29-.48-.55-.4-1-1.24L8,151.22l-.45-.76-.66-.57-1.39-2.22-.44-1.09-.19-.21-.58-1.68-.82-1.59-.29-.8-.1-.12-.78-2.36-.17-.63-1-4.56L1,133.9.7,131.07l0-.1-.06-.49v-2.25l-.31-1.54v0l-.1-.62L0,123.21l.18-.65.07-1.69,1-3.09,0,0v0l.59-1.81.26-2.36.2-.44,0-.6L3.08,110l.27-2.43.77-1.7.15-.83,1.23-1.89.56-1.84.45-3.18L7.05,97l.12-.82L8.46,93.8l1.18-2.53,1.23-3,.24-.2.06-.41,1.34-2.38L14,82.21l.13-.1,0-.2,1.88-3.25.13-.09,0-.16L18,75.69,18.58,74l.45-.4.16-.84,1.93-2.94.36-.26.1-.34L23.48,67,25,64.93l1.31-2.76.58-.47.18-.71L29,58.76l1.61-2.15.18-.12,0-.16,2-2.35.18-.11,0-.12,1.81-1.89.79-1.5.44-.33,1.1-1.46,1.88-1.38,1-1.33.15-.1,0-.13,2-2.35.49-.29.43-.55,2.38-1.74.89-.72,1-1.54,1.15-.78,1.49-1.24,1.43-.49L52.94,35l.16-.06.06-.07,2-1.26,1.4-1.09.76-.37.29-.27,1.68-.76.34-.38,2.58-1.5,1.3-.29.7-.57,1-.46.32-.29,1.27-.52.92-.62,1.73-.76.93-.21L72.89,24h0l7.3-1.62Z"/>
        <path class="cls-1" d="M91.14,66.58l.94-.16.12,0,.78-.13h0l.11,0,.63-.09,1,.22.21,0,.09,0,.43,0h0l.37,0,2,.52.93.16.07.11.13,0,.19.28.82.15.06.09.12,0,.61.93h.09l.06.08.14,0,.07.1h0l.09.14.4.07.07.1.13,0,1.32,2,0,.25.09.38,0,.23,0,.19.11.5,0,.22.05.32L103,74.88l-.12.73,0,0,0,.06-.38.26-.06.37,0,0v.06l-.29.19v0l-2,1.38-2.37-.42-.24-.33-.06,0-.65-1v0l-.29-.15-.1-.27,0-.08-.19,0-.38.11-.68-.08h0L94.3,76l-.11.08-.26.07-.69.56-.57.18-.16,0v0l-.89.25-.32.08-.73.16L88.7,78.47l-.3.06-.08,0L87,78.83l-.22.21-2.44,1.3-.72.16-.19.09-.7.8-.82.48-.51.21-.08.28-.76.8-1.05.59-.59.56-.45.2-1.33.93-.45.47-.63.36-.44.5-.14.08-.24.29-.52.8-.55.39-.87,1.08-1.36.93-.18.08-.24.75-.71.64-.28,1.12-1,1.17-.36.21-.07.23-.4.37V95l-1.2,3-.32.2-.07.22-.48.45,0,.11-.12.68-1.18,1.87-.06,0v.07l-.7,1-.24.36-.22.89-.07.66-.34.77-.08.75L63,107.29l-.5,1.5-.39.35-.13.74-.27.42-.05.21-.07.66-.26.59,0,.67-.36.95-.2.59,0,.54,0,.17,0,.11h0l-.17,2.15.71,3.16,0,.12.17.86.15.68,1,1.86,0,.08.32.16.09.15.1,0,.44.45.68.46,0,0,.28.11.73,0,.5.18.43,0,.25.11h.4l1,.25.66.07.09,0h.16l.72.11.28-.06,1.58-.09.19,0,10.11-2.25,1.14-.28.12,0,1.3-.29.93-.43,1-.35,1-.23,1-.58,1.52-.61h0l.11,0,1.23-.25.23,0,2.4.15,1.36.48,2.37,2.69-.31,2.46-.63,1.28-.18.15-.05.26-3,2.2-.48.12-1,.61-1.52.61-1.38.3-1,.43-.88.29-1.83.4-.11,0-1.17.23L73,135.65l-1.58.09h-.19l-.43.09h0l-1.87.05-1.53-.24-.85-.09-.26-.12h-.4l-1-.25-.67-.07-.66-.3-.71-.06-.26-.11-2.27-.48-1.09-.2,0,0-.06,0-.91-1.32-.22-.13-.28-.38-.32-.14-.15,0-.05,0-.23-.09-.83-.14-.21-.29-.43-.17-1.18-2-.39-.53-.07-.23-.13-.22-.47-1.17-1.17-2-.39-1.76-.21-.83,0-.14-1-4.25.18-2.38-.07-1.2.11-1v0l.08-1.62.58-1.75.06-.06,0-.14.15-.42,0-.35.12-.26v-.4l.35-1.39.45-.43.18-1,.38-.59.38-1.16.15-.13,0-.33.3-.67,0-.2.11-.27v-.4l.51-2.06.46-.44.18-1L56,97.25l.65-1.09.06,0v-.07l.75-1.18.93-2.25.31-.19.06-.2.09-.08.09-.87.65-1.43.83-.67.26-.88L61.8,87.2l.22-.26.28-.81.42-.37.14-.75.73-1.1.82-.57,1.28-1.25.79-.38.19-.12.14-.24.35-.24.09-.34,1-1.17.68-.41.58-.65.26-.16.29-.3,1.07-.61.73-.51,1.45-1.37.4-.17L74,75l2.54-1.78.06-.06.23-.14.38-.27.09,0,1.18-1.12,1.42-.63.79-.26.3-.28,2-1.08.25-.18.9-.23.18,0,.27-.06.74-.17,1.9-1,1.82-.41.31,0,.94-.15h0l.55-.34Z"/>
        <path class="cls-1" d="M103.77,70.93l.64,0,.77.23,1.21.11.26.1.25.29.48.09.1.14h0l.14.24,1.76,2.49,0,.14.31.44.2.91.07.66v.33l-.25.31-.24,1.36-1,.67-.09,1-.22.25L108,83.64l0,.08,0,.59-.27.78-.09,1.18-.41,1.07-.36.31v0l-.06.17,0,.53-.2,2-.13.27v.42l0,.15.07.31h0l-.34,3.31L105.64,96l-.31.91-.1.92.14,1.74-.23.8-.11,1.48-.19.48-.23,1.62,0,1.19-.09.26,0,.67-.11.66.19.83-.3,2.89.27,1.21v0l.33,1.47.19.76.75,1,.9,2h0l0,.08.21.23,1.36,2.53-.71,4-3.34,2.34-5-1.53-1.23-1.3-1.36-2.53h0l-.1-.45-.72-1-.9-2,0-.09-.36-1.78L94.3,114v0l-.59-2.75,0-.19.28-2.7L94,108l0-2,.19-1.18,0-1.13.08-.23,0-.59.37-2.67.26-.53,0-.39-.09-1.17,0-.2,0-.72.21-2,.21-.47,0-.62.58-1.74.15-.14,0-2.39.25-1,.14-1.31V86.23L97.43,83h0v-.1l.27-.79,0-.29,0-.12,0-1.44-.06-.3.07-.34v-.33L97.8,79,98,76.81l.32-.36.07-.37.36-.25.32-.42.1-.45.36-.25.17-.57.17-1,.14-.09,0-.19L103,71.05Z"/>
        <g>
          <path class="cls-1" d="M124.9.56,126,2.19l.16,0,0,.07.31.2.27.39.47.08.64.41,1.77.31.22.31.74.13L131.2,4l1.69.3.49-.06,1.62,0,.34.12h.16l1.14-.25,2.22.17.43-.09h.05l.9-.17,1.16-.24,1.4-.3.81-.22.08,0h0l.44-.11.7-.49L146,2.06l.13.34,0,.07.37.62.95,1.6.66,1.43L150,8.64h0l.31.41.3.42h0l.15.11L149,10l-.73.48-1.42.61-.1,0-1.23.24h-.06l-.84.15-1.4.31-1.15.28-.88.23h0l-1.52.36-.07,0-2.15-.16-.72.16-1.94,0-.13,0H134l-.5.12-1.6-.29-1.27.29-3.18-.56-.11-.16-.19,0-.44-.4-1.36-.24-.17-.25-.32-.05-.22.34-.06,0,0,0,0,.1h0l-.15.34-.1.41-.71.68-.33,1.14-.24.24-.14.33-.29.25-.09.45-.49.72-.37.25-.35,1L120,18.5l0,.23-.36.55-.07.16,0,0-.13.13-.14.22-.35.24-.13.12-.32,1L117.1,22.4l-.45.24-.12.6L116,24l-.33.72-.17.14,0,.26-2.16,1.5h0l0,.06-.3.16,0,.27-2,1.41h0l-.91.2-.11,0,0,.05-.23.06,0,.09-1.26.88-.3.07-2.39-1.52.4-.64.17-.94.44-.7.3-1.7.15-.1.21-1.24.77-.54.17-.42.47-.31.45-.52.77-.45,0-.26.21-.38v-.12l.2-.24.23-.42.29-.21.09-.1.72-1.9.56-.39.58-.58.08-.46.69-1.13.7-.5.29-.92.78-.71.09-.53.21-.37,0-.1,0,0,.23-.66.59-.52.22-.81.11-.11v0l.39-1.08.22-.2.07-.43.22-.38.08-.06,0-.11.47-.74.08-.06V6.09l.18-.7.09-.09v0l-.13-.18.56-3.2L121.7,0Z"/>
          <path class="cls-1" d="M147.27,4.34h0l.21.35.23.5.27.59.16.34.77,1.06.39.53,1,1.31.32.45.71.53.07.06,0,0,.23.63.14.45-.15,1.93-.06.15,0,.09v0l.5,1.91,0,.15L152,16.54l.11.41.06.23v1.68L151.93,20h0l-.05.18.19.8V21l.09.59.08,1.17.32,1.35v0h0l.46,1.93h0l.4,1.68,0,.08.09.93,0,2,.07,2.21h0l.07,1.79.61,2.44h0l.67,2.64,0,.07h0l.86,3.62,0,.07.09.72.14,2.38.66,2.74v0h0l.95,4.07.83,3.28,1.35,3.42.18.58v0l1,4.08v0h0l1,4.06,1.75,3.61.19.51.06.08,1.55,4.46.16.55h0l1,4.45L168,86.5,170,91l.11.33,0,0,1.41,4,.19.66.72,3.24,1.62,3.28.44,1.26.71,3.17,1.45,3.49.08.26,0,0,1.41,4,.2.67.77,3.47.88,2.26,1.46,2.52.63,1.6.6,2.69,1,2.31v0l1.06,2.52v0h0l1.06,2.53.32,1,.33,1.5,1.06,2.08h0l.13.23,0,0-.88.94-3.2,3.4-.05.13-1,2.59h0l-.59.33-.13.06-1.46.64-.74.34h0v0l-.12-.12-.91-1.94-.75-1.4-.07-.18,0-.05-1.34-2.72-.45-1.27-.38-1.7-.87-2.07v0h0l-1.07-2.53,0-.13,0,0-1.1-2.79-.26-.85-.52-2.37-1.24-2.21-.22-.59-.11-.13-1.18-3-.25-.83-.8-3.58-1.23-3.58L165,110.77l-.3-.94-.67-3-1.58-3.34-.41-1.17-.79-3.59L160,95.13l-2-4.67-.22-.69,0,0-1.16-4.32-.06-.24v0l-.92-4.35-1.29-4-1.75-3.88-.34-1,0-.14-.9-4.64h0l-.73-3.85-1.14-3.5-.12-.45,0-.14-.69-3.62-.86-4.09h0l-.65-3.17v0l-.09-.8,0-2.37-.67-3.24h0l0-.07-.51-2.69h0l-.56-2.91v0l-.08-.91.08-2.32h0l.07-2.27h0l.07-1.55-.25-1.22-.39-1.94h0l-.34-1.71v0l-.08-.61,0-1.19L144,21v-.08l0-1.76.29-1.1h0l.06-.24-.06-.39.31-1.38-.2-1.1h0l0-.26-.08-.76.14-.52.09-1.12.39-1,.21-.17h0l0-.75.34-.44.12-.47-.05-.51,0,0,0-.29V8.06l.16-.2.09-.86.23-.5h0L146,6.22l0,0-.08-.47L147.07,4Z"/>
          <path class="cls-1" d="M123.54,150.84l.39,0h.51l.58-.18h1.49l1.11.23.28.27.73.1.3.16.29,0,.64.22.62.14,1.34.11.27.23,1,.11,1.06.49h0l1.37-.15.09,0,.48,0,1.84.08.18.07h.36l1.56.3.61-.15.08,0,.82-.1,1.84,0,1-.24h0l2.17-.52h0l1.93-.45h.05l2.14-.48,1.28-.3,1.93-.88h0l2-.94h0l2-1h0l1.77-.88.43-.16.07-.06,2.1-.74.52-.15,1.18-.26.87-.72,1.38-1.26,1.84-1,.07,0,1.93-.45h0l1.28-.28,1.91-.85.75-.25h0l1.13-.26,1.06-.58,1.08-.41h0l1.94-.45h.05l1.42-.32,1.16-.28.08,0,3.27.58,1.43,2-3.28,3.48-1,2.6h0l0,.09-1.16.25h-.05l-1.33.28-1,.55-1.14.43-.06,0-1.26.26-1.88.83-.82.27-1.7.38h0l-.82.17-.61.56-.2.1,0,.09-1.72,1.37-1.74.83-2,.44-1.65.54-1.53.77-.14.05,0,0-2.06.94h0l-2,.94-.11,0,0,0-2.3,1-.77.25-.08,0-1.66.34-2.15.47h0l-2,.41h0l-2.19.46h0l-1.47.3h0l-.82.08-1.87,0-1,.21-.08,0h-1.54l-2.13-.46-1.23-.1-1.71.13-.38-.11-1,0-1.09-.31-.2-.21-.5-.07-.81-.42-.91-.11-.11-.1h-.42l-1.09-.3-.12-.13-.33,0-.67-.29-.39-.13-.34-.38h-.12l-.23-.07-.3-.07-.07,0-.48-.15-.06-.06-.6-.19-.67-.12-.08-.11-.16-.05-.75-1.18h0l-.32-.46-.15-.1-1.11-1.59.63-1,.11-.65.55-.38.63-1Z"/>
        </g>
      </g>
    </g>
  </g>
</svg>
