<svg xmlns="http://www.w3.org/2000/svg" viewBox="0 0 338.34 417.43">
  <defs>
    <style>
      .cls-1 {
        fill: #1ca2db;
      }
    </style>
  </defs>
  <title>Asset 1</title>
  <g id="Layer_2" data-name="Layer 2">
    <g id="Layer_1-2" data-name="Layer 1">
      <g>
        <g>
          <path class="cls-1" d="M145.31,178.31l.34.34.44.18.3.71.09,0,.08,0,.21.09,0,.09.27.2,0,0,0,0,.59.44.37.75.54.4.06,0h0l.53.41.41.82,1.37,1,.14.37.16.19.23.61.31.19.62,1.23.08.3.09.07.31.79.26.5.74.77.27.68.74,1,.34,1.06.39.93.9,1.38.34,1.13.38.64.35,1.86.45,1.64.66,1.31,0,.14.08.09,1.13,2.53.07.31.11.16.86,2.46,1.07,2.64.1.53.14.22.87,3.38.87,2.46,1.58,2.47.22.72.4.54,1.44,4.09v.06l1.42,4.09,0,.11,0,0,1.33,4.1,1.8,4,0,.19.08.09,1.93,4.87,0,.19.07.09,1.8,5.08,2.24,4.5.1.4.18.24L181,257h0l2.39,5.82h0l2.15,5.12,0,.08,0,0L188,274l.11.56.17.25,1.75,6.19,2.42,5.1.11.48.19.26,2.31,6.52,2.51,5.67.07.33.13.17,2.38,6.46.07.41.11.17,1.75,6.1,2.42,5.8,0,.18.07.09L207,325l.05.25.08.1,2.07,6.22.07.43.1.15,1.56,6.1L212.7,344l0,.13,0,0,1.59,5.42h0l1.79,5.51v.07l1.58,4.89.16,1,.14.25.8,4.91h0l.76,4.21.95,4.25,1.23,4.08,0,.19,0,.06,1.06,3.85.2,1.44.08.17.19,2.84.79,1.84.08.4.14.19,1.06,3.08.09.51.12.19.65,2.61.82,2.05.6,3v1.47l.32,1.45h0l.39,1.59.35,1.14.34,2.19L227,414.14l-5.16,2.14-5.18-2.15-1-1-.22-.52-.82-.77-1-1.63-.48-1.61-.6-1-.52-2.3-.2-1.79v-.81l-.45-1.13-.15-.77-.2-.31-.73-2.89-.85-2.6-1.14-2.8-.46-2.32-.13-.29-.19-3.39-.81-3.12h0l-1.22-4.25-.06-.4-.08-.12-1-4.64,0-.35,0-.08-.76-4.4v-.15l0,0-.68-4.4-1.34-4.37v0h0l-1.78-5.7,0-.21,0-.07-1.52-5.44h0l-1.75-5.87-.05-.32-.07-.1-1.47-6-2-5.9-2.22-6-2.52-6-.14-.67-.2-.3-1.72-6.29-2.14-6.06-2.45-5.73-.09-.4-.14-.19L178.8,292l-2.37-5.43-.18-.82-.23-.35L174.37,279l-2.1-5.6v0h0l-2-5.21v-.06l0,0-2.24-6,0-.15,0-.07-1.9-5.5-2.11-4.66-.11-.54-.19-.26-1.71-5.47h0l-1.65-4.82-1.63-4.3-.09-.49-.13-.2-1.16-4.43h0L156.11,227v0h0l-1-3.59-1.37-2.6-.21-.83-.28-.44-.9-3.39-.05-.41-.06-.09-.57-3.31-.81-2.5,0-.26-.06-.09-.62-2.42-.85-2.38h0l-.66-1.83-.13-.72-.12-.2-.39-2.34,0-.49,0,0-.08-1.14-.49-1-.16-.66-.2-.32-.39-1.56-.08-.63,0-.09,0-.2-.29-.44-.21-.7-.35-.51-.38-1.32-.09-.57,0-.11-.09-.71-.21-.7-.26-.53-.2-.84h0l-.44-.57h0l-.43-.58-.37-1.09-.12-.15-.13-.1,0-.1,0,0,0,0-.41-.59,0-.05h0l-.66-1.59-.05,0-.78-1.87.78-1.87,1.87-.78Z"/>
          <path class="cls-1" d="M219.51,171.1l.26,0,2.41,1.39.12.32.2.11.15.23.17.06.18.26.23.1.3.71.86,1.31.07.27.89.83.18.42.36.17,1.13,1.49,0,.08.06,0,.81,1.13,1.31,1.64h0l1.4,1.74,0,.06,0,0,1.94,2.51.1.29.18.09,1.83,2.85,1.74,2.24L239.4,195l.25.68.37.22,1.54,2.73,2.76,3.73,2.69,3.47.07.2.13.07,2.91,4.19,3.33,4.2,0,.1.07,0,3.71,4.9h0l3.15,4.08.08.23.25.23,3.11,4.8,3,4.19,3.33,4.3.05.17.11.05,3.15,4.4.05.17.16.15,3.11,4.85,3.3,4.76,3.35,4.57.06.19.2.19,3,4.61,2.9,3.57.19.52.56.59L293,271l0,.09.05.07,2.31,4.46,2.51,4.15v0h0l2.6,4.29,2.81,4.24.18.55.4.48,2,4.26,2.14,3.45.11.39.27.3,2.12,4.33,2.23,3.06.16.45.41.44,2.38,4.38,0,.11.07.08,1.85,3.59v0l1.85,3.59.08.29.15.19,1.41,3.21,1.58,2.66v0l1.84,3.08.07.27.19.2,1.31,2.55.14.6.27.35.75,2.06.84,1.32.06.19.16.16.83,1.46,1,1.43.12.36.35.35.51.87.69.9,0,.13.15.13.74,1,1.47,4.58-2.3,5.56-5.56,2.3-5.56-2.3-.2-.49-.41-.19-.75-1-1-1.19-.15-.43-.5-.48-.69-1.12L316,345.33l-.1-.33-.3-.31-1-1.75L313.45,341l-.25-.85-.47-.61-.91-2.5-1-2-1.65-2.87v0l0,0L307.39,329l-.14-.53-.3-.37-1.47-3.49-1.66-3.42v0h0L302,317.53h0l-2-3.9-2.26-3.24-.2-.64-.49-.56-2.15-4.68-2.09-3.59-.13-.49-.29-.34-1.8-4.21-2.49-3.94-.05-.17-.13-.13-2.54-4.44v0l0,0-2.53-4.43-.07-.28-.17-.19-2.28-4.68h0l-2.2-4.28-2.67-3.39-.1-.32-.35-.32-3-4.81-3.21-4.52,0-.09-.08-.08-3.35-5,0-.12-.11-.11-3-4.84-2.93-4.2L256,241.2l-.06-.18-.12-.06-3.08-4.44-.06-.18-.16-.16-2.94-4.79-2.91-4v0h0l-3.58-5h0l-3.27-4.43-.09-.27-.26-.26L236.72,213l-2.37-3.6,0-.07,0,0L231.58,205l-.14-.45-.3-.36L230,201.57l-2.37-3.22-.09-.26-.14-.09-1.69-2.67-.08-.3-.14-.08-1.59-3-1.57-2.48v0h0l-1.19-1.88h0l-1.19-1.88-.11-.37-.16-.1-.6-1.22-.6-1-.91-1-.25-.65-.38-.22-.44-.8-.23-.85-.17-.48-.14-.25,0-.2-.41-1.12-.52-.28-.38-.59-.64-2.1.09-.22-.12-.31.82-2,.3-.12,0-.07,2.69-1.12Z"/>
          <path class="cls-1" d="M332.2,347.13l1.87,4.51-2.31,4.92-.41.33-1.05,1.41-.53,1-.77.8-.22.54L327.5,362l-.67.29-1.25,1.1-.47.22-.08.19L324,365l-.29.71-1.31,1.3h0v0l-1.85,1.81-.28.12-.12.24-1.53,1.28-2.05,1.76-.41.16-.5.5-1.18.72-2.19,1.45-.25.08-.22.21-2.22,1.24-1.91,1.19-.17.05-.14.13-2.06,1.15-1.54,1.08-.74.23-.63.51-2.25.88-1.69.92-1.52,1.06h0l-1.82,1.27-.74.23-.63.51-2.23.86-1.37.76-1.58,1.38-.69.26-.87.75-2.34,1.07L283,392.06l-1.44,1.43-.76.31-1.29,1.06-2.44,1-1.77,1.3-.93.3-.82.6-1.19.4-1.48,1.08-2,1.64-.67.24-.76.64-1.9.84L264.43,404l-.78.32-.28.5L261.32,406l-2.25,1.45-.93.28-.66.45-2,.59-1.78,1h0L251.33,411l-.16,0-.1.09-2.07,1-.22.06-.13.1-1.8.75h0l-2.2,1-.74.16-.32.2-2.05.48-.45.06-.09,0-1.51.22-1.27.34-1,.37-1.24.22-.22.11-1.91.18-1.37.36h-.11l0,0-1.81.44-1.3.15h-.35l-1.26-.08-1.79-.08h-.13l-1.28-.09-2.31-.14h-.23l-1.31-.15-.05,0-.29,0-.65-.12-.83-.11-1.22-.12h-.21l-.44.13-1.24.18-.54-.13h0l-.43,0-.18,0-.92.11-.26-.11-.25,0-.26,0-1.06.22-2.11-.88-.39-1-.22-.3-.17-.13,0-.16-.41-.57.26-.35,0-.17.1-.81.16-.64.55-.85.26-.69.3-.15.2-.32,1.1-.38.72-.39.16,0,.49-.22,1.18-.25.2-.1h.21l.69-.36,1.12-.27.34-.18,1-.12h.13l1.22-.12.84-.11.6-.12.34,0,0,0,1.27-.13.25,0h0l2.32-.14,1.24-.09h.15l1.79-.08.54,0,1.1-.36h.09l0,0,1.78-.56.81-.13.18-.09,1.55-.2.53-.23.42-.09.2-.14,1.78-.55.74-.11.17-.09,1.5-.22,1.32-.35,1.89-.84h0v0l1.68-.75,1.83-.93,2.19-1.25h0l2.31-1.32.74-.19.45-.32,1.76-.55,1.58-1.08.11,0,0-.06,1.51-1,1.33-1.38.62-.26,1.13-1,2-.95,1.35-1.25.19-.07.07-.16,2.29-1.89.73-.26.82-.67,1.21-.51,1.57-1.3.76-.27.85-.7,2-.83.93-.93.61-.26.25-.46,2.59-1.81.55-.18.48-.41,2-.92,1.37-1.21.5-.18.61-.6,2.32-1.29.42-.11.28-.23,1.89-.78,1.18-.85h0l1.8-1.31.32-.11.31-.31,2.31-1.31.46-.12L295,370l1.88-.77,1.16-.84.35-.12.34-.32,2.22-1.24,1.91-1.19.17-.05.14-.14,2.13-1.18,2.1-1.4.15,0,.13-.13.79-.48,1.62-1.43.12-.05,0-.09,1.32-1.1,1.59-1.61h0l0,0,.37-.38.28-.67,1.72-2.1.24-.49,1.29-1,.52-.18.55-.52.73-.38.11-.1.44-.67.24-.13.14-.39,1.88-2.32.94-.45.43-.8,1.06-.73,3.61-1.11Z"/>
        </g>
        <g>
          <path class="cls-1" d="M129.62,176.14l.23,0,.55,0,1.72.27.22.07.42.09.93.17.36.21.88.16.33.19.1,0,1.68.37.45.21.26.41.77.32.48,1.15,0,0,.17.42,0,.08.39,1-.14.35,0,.18-1.21,2.92-.9.37v0l-.22.09-.31.45-.43.16-.4.08-.16.1-.42.1-.54.31-.88.17-.36.2-.94.18-.38.08h0l-.73.31-.78.15-.28.18-.44.09-1.66.85-1.5.16-.14.08-1.4.36-.61.36-2.28.41-.35,0-.06,0-.46.05-1,.37h0l0,0-1.72.65-.12,0-.06,0-1.73.62-1.75.31-.25.12-1.07.08-.83.18-.9.31-1.87.91-1.75.41-.57.32-.53.07-1.06.95-2.27,1.09-.69.16-.36.27-1.81.58-1.67,1-1.35,1-1.51.52-1.32.88-2.26.61-.6.31-1.38,1.42-.27.12-.11.25-2.06,1.86-.46.17-.58.63L85.07,208l-1.3.95-1.56,1.4-2.14,2.17-.32.13-.14.3-1.8,1.58-.06,0,0,0-1.82,1.56-.29.1-.32.37-1.25.9-1.32,1.33-.37.14-.14.32-1.54,1.31-.06,0,0,0-1.27,1.06-.6.59-.43.58-.08.07,0,.06-.25.16-2.62,2.2-.57.14-.12.14-.69.52-1.57.53L61,227.6l-.81.2-1.93.24-5.45-2.26-2.26-5.45.65-2,.08-.57.23-.92.3-.45.21-.93.57-1.21.73-.83.27-.78,1-.64,1.14-1.29.38-.11,0,0,1.3-1.3.42-.17.16-.36,1.55-1.3h0l0-.06,1.24-1,1.52-1.52.45-.19.63-.72L65,202.86l1.52-1.31.06,0,0,0,1.58-1.33,2.13-2.09.3-.13.13-.27,2.09-1.79.33-.13.38-.42,1.82-1.26.21-.07.19-.19,2.36-1.47,1.41-1.19L81.74,189l.86-.35L84,187.48l2.58-1.24,1.23-.28.55-.35,1.66-.38.57-.38.44-.14.38-.35,2.86-1.49,1.07-.27.57-.38,2.17-.6.94-.38.74-.57,2.93-1,1.3-.62,1.14-.09,1.21-.49.94-.18.35-.22,1.8-.4,1-.11.12-.05,1.81-.15.62,0,.55,0,.5,0,.77-.17.16,0,0,0,1.81-.35h0l1.82-.35,1.36-.14.87.06.73.09,1.06,0,.61-.16,1.7-.23.82.06,1.25.16.32,0,1.26-.26Z"/>
          <path class="cls-1" d="M282.49,9.32l.67.06.67,0,.53,0,5.15,2.1.4.39,2.14,5.11L290,22l-2.35,1-.89.66-1.2.41-1.47.24-.25.13-.6.06-.87.25-1,.36-.94.17-.31.19-1,.21-1.46.42-.32,0-.1.06-1.64.39-1.11.49-.82.18-.37.25-1.11.29-.92.53-1.14.3-.67.46-2.57.71-.18,0-.05,0-2.18.55L263,31l-1,.22-.43.28L259,32.2l-2.84.92-.44.07-.16.1-3.09.75-.67.08-.13.07-2.75.37-2.24.91-.75.15-.31.19-3.66.89-3.34,1.11h0L234.91,39l-.22,0-.08,0-3.56,1-2.79,1.43L227,41.9l-.55.34-4.11.84-2.85,1.16-4.17,2.13-.22.05-.15.12-3.91,1.74-.35.07-.18.14-4.82,1.68-3.9,1.66-3.39,2.38-.45.14-.4.37-5,2.47h0L187,59.93l-.45.11-.25.19-5.15,1.82L176.3,64.6l-.26.06-.16.14-4.62,2-5.6,2.74-.08,0-.05,0-5.48,2.55-.49.11-.25.18-5.53,1.7-6,2.48-.29.06-.13.09-5.29,1.75-5.24,2.22-.7.14-.28.18-5.27,1.18-5,2.11-.56.12-.23.15-4.86,1.25-5.52,1.73-4.79,1.74-.79.14-.22.12-4.21.68-4.46,1.62-.27,0-.11.08-3.94,1.13-4,2.07-.63.15-.34.24-4,1.18L82.42,98.9l-3.79,2-.12,0,0,0-3.29,1.65L71.88,105l-.56.18-.15.26L68,107l-3.23,2.53-.25.09-.09.16-2.89,1.93-3.15,2.67-.69.25-.22.37-3.19,1.71-2.58,1.73-2.84,2.6-.7.27-.24.41-2.82,1.62L43,125l-2.69,2.65-.58.23-.22.41-3.14,2-.37.11-.29.26-1.91.88L32,133.32l-.5.2-.18.34-2.58,1.69-2.24,1.63-2.08,1.65-.66.23-.19.31-1.16.56-1.67,1h0l-1.43.91-1,1.09-.55.24-.22.41-1.87,1.21h0v0l-.62.39-.48.56-.21.09-2,1.14-.55.1-.9.61h0l-.47.31-.52.52-.52.53-.85.35-1,.41,0,0-.24.11-.22.34-.5.25L4.82,151h-1l-2.67-1.11L0,147.25l1.11-2.67,1.81-.75v0L4.77,143l.53-.53.41-.17.17-.3.76-.51h0l1.55-1,.79-.24.51-.31.09,0,.23-.52,1-.86.13-.05,0-.09,1.34-1.06.91-1.21.48-.24.24-.51,1.74-1.4h0l1.73-1.4.15,0,.05-.1,1-.71L20.35,130l.19-.08.07-.16,2.28-1.9.16-.06.06-.1,2.21-1.65,2-2.11.91-.39.34-.57,2.35-1.26,2.47-1.69,2.5-2.54.29-.12.13-.26,2.58-2.1.48-.18.16-.27L42.19,113l2.73-2.5.46-.19.17-.31,3.12-2.08.34-.11.1-.15L52,106.08l3-2.51.37-.13.12-.23,3-2,3.48-2.74.7-.24.2-.33,3.3-1.65,3.3-2.36.56-.18.16-.25,3.63-1.82h0l3.8-2,.1,0,0,0,4.66-2.36.59-.14.33-.22,3.92-1.16,3.91-2.1.64-.16.37-.26,4.29-1.29,4.73-1.77.77-.14.23-.13,4.2-.72,4.44-1.66.19,0,.08-.06,5.7-1.84.22,0,.08,0,4.58-1.23L126.7,72l.7-.14.29-.18L133,70.45l5-2.15.31-.07.15-.11,5.3-1.79,6-2.53.31-.07.15-.11,5.37-1.76,5.08-2.47h0l5.62-2.88.16,0,.1-.08,4.44-2,4.89-2.82.44-.12.31-.25,5.11-2.09,5.06-2.8h0l4.51-2.52,3.47-2.65.61-.21.6-.53,4.63-2.15.28-.07L201,38l4.68-1.81,3.49-1.72,4.22-2.31.3-.08.21-.18,3.58-1.61.89-.2.38-.24,3.75-.89,2.47-1.4.77-.2.48-.36,4-1.35,3.4-1.31h0L237.31,23l.43-.08.19-.13,3.46-1L244,20.61l1.43-.3.43-.24,3.28-.49,2.5-.65,2.78-.95.27-.05.11-.07,2.12-.62,1.33-.71.94-.24.52-.37,2.8-.82h0l1.69-.56,1.1-.62,1.37-.37.74-.46,1.49-.36,1.21-.5,1-.2.37-.23,2.11-.45,1.5-.43.51-.07.15-.09.55-.11.53-.23.64-.13.28-.19,1.78-.51,2.15-.31Z"/>
          <path class="cls-1" d="M300.8,121.38l1,.26h.93l.74,0,2.12.23.17.09.93.13,1.88.54h0l1.74.47.22.14.48.1.82.32.58.13,2.15,1.37,1.12.46.13.33.37.23,1.51,4.29-2,4.85-4.85,2-1.8-.24-1.09-.29-.21-.15-.49-.09-1-.41-1.57-.47h0l-1.24-.36-1.14-.16h-1.35l-2-.29-.13,0-.58.13-1.51.17h-.06l-2,0-1.95.2-2.25.43-1.92.42-2,.65-.8.13-.21.12-2.64.44-2.61.86-.15,0-.05,0-2.5.75-3.39,1.19-2.22.89L268.56,143l-.34.08-.2.16-3,1.17-2.36,1.12-3.23,1.67-3,1.69-1,.25-.54.36-2.31.61-2.23.86-2.08,1.37-.34.1-.29.26-2.36,1.19-.56.14-.31.23-2.06.67-1.33.79-.32.09-.24.21-1.87.87-2,.43-.17.08-.93,0-.18.11-.69.2-.49.35-1.85.59-.52.09-.15.08-1.34.24-.87.37-.65.13-.24.15h-.08l-.17.14-2.46.89-.87-.1-.47-.11-2.32,1h-.12l-.37.22-1.6.43-2.24-.93L217,159l1.25-2.52.74-.56.91-.31.6-.33.21,0,.1,0,.14-.26.77-.52.23-.07.07-.11.9-.48.62-.15.39-.86.83-.74.13-.05.05-.1,1.16-.94.58-.21.63-.5,1.49-.6.84-.46.65-.65.92-.39L233,147l1.19-.23.56-.39,1.49-1.26.58-.21.68-.6,2.26-1.08,1.79-1.09,2.3-1.72.61-.2.58-.5,3.06-1.37.4-.09.21-.15,1.91-.64,2.46-1.5.13,0,.1-.1,3.33-1.86.11,0,.06-.07,2.55-1.34.28-.07.18-.15,3-1.31,3.42-1.73.36-.09.22-.17,2.56-1,.17,0,.08-.06,3.6-1.31.29-.06.12-.08,2.53-.76,2.93-1,.86-.14.24-.14,2.59-.43,1.78-.61.57-.09.19-.13,2.31-.51h.11l0,0,2.57-.53L291,122l.09,0,2.59-.26.63,0h0l1.64,0,1.61-.35,1.51-.17h0Z"/>
          <path class="cls-1" d="M287.78.21h.08l.47,0h.28L290,.51h0l1.27-.12.48,0,1.83.34.79.29.57.14.32,0,.26.12,1.67.35L298,2h.67l.16.08,2.32.52,1.93.92.26.23.32.09,1.62,1,1.63.79.1.09.15,0L309.37,7l.33.32.35.11,2,1.44,2,1,2.3,2.13.23.12.81,1.2,1.37,1.13.1.22.26.1,1.88,1.78h0l1.87,1.79.32.73,1.22,1.37.78,1.63.63.59.3.69,1.19,1.29,1.42,2.77,0,.14.09.1,1,2.11,1.25,1.44.52,1.37,1.12,1.65.91,3.2,1.12,3.33.11.66.13.22.69,3,.08.76.07.12.34,2.94,1,3.38.3,2,.06.14.12,3.1.35,3.32,0,.69v0l.12,4.16v0h0l.12,4.43v.08h0l.07,3.65v.66l-.2,4v0l0,.49-.47,4.23h0v0l-.42,3.62-.23,4.4,0,0-.06.78-.53,3.71h0l-.49,3.33-.51,4.07-.06.12-.06.59-.7,3.39-.49,3.39,0,.06,0,.32-.51,2.67,0,0v.12l-.57,2.68v2.12l-1.06,4.35-.31.61V124l-2.8,6.6-6.64,2.73-6.65-2.73-2.8-6.61,0-2.87V121l.95-4.14.33-.66v-1h0l.2-2,.8-3.72h0l.47-2.22.48-3.38.06-.12.06-.53.71-3.24.47-3.77,0,0V96l.55-3.39.44-3.13.26-4.33,0-.06.06-.73.58-4h0l.53-3.8.28-3.35.06-3.37h0v-.06l.12-4.45h0l.12-3.88L320,58.1v-.69l.09-2.32L319.48,52l-.16-1.52,0-.06-.08-3.3-.26-2.3-.75-3.16,0-.39-.06-.1-.31-1.76-.71-1-.31-1-.61-.81L315,33.45,314.45,32l-.56-.6-.34-.85-1.05-1.26-.74-1.72-.88-.94h0l-1.62-1.72-1.88-1.74-.25-.57-1-1-.34-.59-.8-.48L304.5,20l-.38-.14L302,18.15l-1.73-1.22-1.68-1.12-.12-.23-.36-.13-1.52-1.23-.65-.44-.82-.22-.84-.56-1-.34-1.61-1.15-.44-.29-1.09-.62,0,0h-.23l-1.05-.11-1.11-.58-.17-.06h-.42l-.25-.12-1.15-.3h0l-.18-.05-.32,0-.28-.06-1.41-.91-.73-.3-.1-.23-.25-.16-1-2.85,1-2.84.25-.17.1-.22.76-.32,1.41-.9.22-.05.48-.06.09,0,.49-.06.47,0,.1,0Z"/>
        </g>
        <path class="cls-1" d="M9.65,148.86l1.21,2.9-.47,1.9-.44.85h0l.06.29,0,.4,0,0,.07.74.07.05.51,1,.13.53.14.34h0l.81,1.27.08.28.13.08.53,1,.52,2.05.14.22.12.4.16.1.6,1.23h0l.61,1.22.06.22.11.14.62,1.48.18.87.16.29.25,1.33.77,1.6.11.48.19.26.48,1.47.68,1.43.14.62.21.31.38,1.36,1,1.65.08.31.19.22.46,1,1,1.11.2.54.35.19,1.34,2,.22.76.44.58.64,1.8.73,1.27,1.41,1.56.18.47.6.6,1,1.74,1.53,1.67,1.94,1.48.14.29,2,2.67.27.77,1.38,1.22h0L37.66,203l1.46.64L41.87,206l0,.11.06,0,.91,1.45L44,208.69,45.47,210l1.79,1,.86.83.53.23.67.67,1.09.61.86.83.53.22,1.43,1.43,1.4,1h0l1.84,1.31,1.73,1.22.21.13,1.33.57h0l1.28.55,1.26,1.05.73.31.2.47.61.51,1.08,3.58L63,231l-4.57,1.89-2.26-.41-1.36-.5-.09-.07-.15,0-1.87-.8-.46-.38-.54-.17-.81-.54,0-.09-.15-.05-1.82-1.33-1.79-1.27v0h0l-1.84-1.33L45,225.5l-.53-.22L43.27,224l-1.13-.66-.78-.78-.49-.21-.67-.67-1.6-.88-.6-.59-.48-.18-2.1-1.83-.1-.23-.24-.1-1.81-1.84-.33-.8-.54-.3-.28-.45-.62-.28-.89-.77-.68-.26-2.35-2.09,0,0,0,0-2.6-2.37-.34-.77-1.42-2-.17-.53-.84-.66-.25-.51-.55-.25L19,201.38l-.2-.53-.64-.67-.95-1.79-1.36-1.6-.19-.5-.56-.59-1.25-2.34-.17-.69-.29-.4-.53-1.69-.66-1.1L11,188l-.27-.76-.68-.85-.62-1.55-1.09-2-.26-1.05-.31-.5-.36-1.65-.54-1.39-.1-.54-.14-.21L6.27,176l-.8-2-.31-1.56-.11-.23-.11-1.6-.25-1-.36-1.15h0l-.25-.8-.47-.82-.69-2.57v-.2l-.55-1L2,161.76l-.29-.17-.51-1L1,159.46l-.11-.31-.09-.52-.08-.33h0v-.08l-.13-.71,0-.46.08-.8.09-.18.08-.83,0,0,0-.36.1-.53.06-.12.09-.52.06-.11h0l.1-.26,0,0v-.2l.11-.26.09-.38.27-.55,0,0L2.62,150l.39-.16.08-.1.1-.19.15-.11.26-.31,3.15-1.46Z"/>
      </g>
    </g>
  </g>
</svg>
