<svg xmlns="http://www.w3.org/2000/svg" viewBox="0 0 227.43 189.47">
  <defs>
    <style>
      .cls-1 {
        fill: #f27ef4;
      }
    </style>
  </defs>
  <title>Asset 6</title>
  <g id="Layer_2" data-name="Layer 2">
    <g id="Layer_1-2" data-name="Layer 1">
      <g>
        <g>
          <path class="cls-1" d="M171.07.29l1,.32h.91l.93.07,1.85.31.18.1.64.11,1.35.45,1.64.23.2.1.76.13,1,.32H182l.92.07,1.33.22h1.08l2.53.6,1.86.92.12.11.16,0,1,.6,1.3.43.23.17.42.1,1.86.91.4.35.42.14,1,.72,1.3.76.11.19.35.11.81.59,1.41.69.5.44.47.16,1.55,1.19.33.67.68.33.93,1.17.08.24.15.07,1.1,1.59,1.06,1.28.3.83.73.94.39,1.05.75,1.08,1.5,2,.47,1.41.65,1.07.12.64.9,1.37.09.29.23.24,1.25,2.36L215,31l.2.24.66,1.63,1,1.4.64,1.91.6,1.13.22,1.73,1.11,2.36,0,.07,0,0,.94,2.06.32,1.5.22.41.27,2.06.7,2,0,.18.06.08.91,3,0,.26.06.09.92,3.59.1.77.07.14.29,2.4.52,2.35.08.68.05.11.29,2.66.51,2.31.06.52.05.1.3,2.22.56,2.76.05.49,0,.08.32,2.7,0,.83v2.7l0,2.71V86l0,2.69v2.78l0,2.68v.09l0,.69-.24,2.34,0,1.73v.09l-.12,1.29-.52,2.76-.25,2.45,0,.06,0,.4-.59,3.38-.08.16-.08.55-.6,2.06,0,2.31v0l0,.8-.28,2.47-.08.16-.12.86-.92,3.39-.15.22-.1.49-1.06,2.67-.82,3,0,0v.09l-.93,3.08v.07l-.86,2.71-.85,2.94-.27.39-.17.72-1.56,3.19-.73,2.29-.17.24-.1.45-1.31,2.93-.58,1.92-.2,2.07-.33.63-.55,2.13-1.34,2.43-.74,1.71-.47,2.31-.31.52-.28,1.21-1.21,2.48-.15.16-.05.2-1.23,2.17h0L205.59,170l-.69,1.62-.83,2.28-.21.26-.1.44-.93,1.87-.13.13,0,.18-.85,1.5-.39,1.18L201,180l-.23.83-.15.25-.1.7-.39.73-.49,1.82-1.18,1.22-.37.68-.46.17-.55.56-.2.12-.2.22-.59.27,0,0H196l-4.22,1.87-4.7-1.95-2-4.7.13-1.25.25-1.33.47-.78.21-.77.17-1.19.45-.81.51-1.88.5-.83.37-1.11.37-.5.2-.76,1.12-2,.66-1.32.82-2.13.06-.07,0-.13.93-2.18.21-.25.09-.37,1.54-2.76,0,0v0l1.13-2,.69-1.35.42-2.1.27-.44.23-1.1,1.26-2.76.17-.2.07-.27.83-1.5.17-1.35.11-.21.14-1,.92-3.08.22-.31.13-.6,1.39-3,.83-2.42.25-.32.13-.54,1.57-3.09.77-2.49,0-.06,0-.12.91-2.61.85-2.82.88-3.24.15-.22.1-.5,1.06-2.67.68-2.5.21-1.51,0-2.89v0l.3-2,.82-2.67.52-2.72.3-2.51.05-.09,0-.46.49-2.38,0-1.46h0l0-.72.28-2.36,0-2.31V88.68l0-2.69V83.3h0v0l0-2.71V78.19l-.21-2.07-.54-2.68-.05-.51,0-.08-.24-2.09-.53-2.34-.08-.77-.06-.11-.24-2.62-.51-2.27-.07-.7-.06-.11-.24-2.28-.75-3.08-.83-2.82h0l-.83-2.57-.2-1.25-.1-.21-.17-1.78-.49-1.2h0l-1.4-3.19-.36-1.69-.17-.35-.1-1.09-.52-.77-.26-.83-.5-.67-.75-2.14L202.62,34l-1.29-2.17-.48-1.7-.35-.67-.06-.39-.64-.94-.05-.16-.08-.05-1.15-1.83-.25-.88-.43-.6-.24-.8-.51-.66-.11-.32-.18-.1L195.68,21l-.35-.49-.42-.35-1.28-.66-.43-.41-.43-.14-1-.75-1.27-.78-.11-.21-.36-.12-.78-.61-1-.49-1.45-.48-.47-.35-.67-.19-1.3-.8L184,14h-.24l-.83-.06-1.36-.23h-1l-1.78-.29-1.34-.45-1.65-.23-.2-.11-.76-.12-1.4-.47-.93-.15h-1.35l-1.78-.29-1-.32h-5.07l-1.72.43-1.41.18h-.74l-.83.13-1.31.5-.35.23-1.57.48-.77.42-1.22.18-.56.27-.79.6-.72.24-.69.53-.62.23v.05l-2.47,2-1.81.78-.14.08-.54.79-1,.51-.5.95-1.17.78-1,1.22-.68.31-.3.59-.42.3-.47.71-.77,1.54-.8.88-.22.53-1.49,1.49-.33.46-.68,1.43-.18.21-.07.26-1,1.67-.09.36-.28.45-.22.9-.76,1.45-.53,1.47L131,39.32l-.29.69-.27.26-.21.6-.15.2-.09.35-.53,1.11-.18,1.06-.35.61-.36,1.29-.8,1.34-.53,1.05h0L126.63,49l-.17.83-.17.29-.16.77-.93,2.15-.32.4,0,.08-.14.91-.24.43-.28,1.19-.63,1.27-.17.66-.24.36-.17.74-.29.58v.27l-.52,2.36-.59,1.26-.15.17-.06.22-.19.35-.1.76-.15.55v.23l-.08.17-.58,2.34-.41.79-.18.51-.26.35v.25l-.26.67v.19l0,0-1.68,4.07-4.06,1.68-4.07-1.68-1.68-4.07,0,0v-.68l-.07-.18v-.6l0-.51,0-.32.23-.47.12-.48v-.2l0-.82V65.4l.43-2.17.2-.47v-1l.32-1.34v-.59l0-1.5.11-.25.54-1.71V55.6h0v-.07l0-1.2,0-1.5h0v0l0-1.22h0V51.2l-.18-.44-.4-2V46.38l-.21-1.3-.08-.92v-.25l0,0-.59-2.44V40l-.13-1.07-1.08-2.61v-.88l-.33-.68-.11-.45-.17-.24-.6-1.78-.11-.67-.1-.18-.18-1-.35-.7-.62-.85-.25-.78-.51-.69-.42-1.27-.59-1-.12-.42-.25-.3-.33-.79-.06-.06-.08-.15L100.2,21,100,20.3,99.64,20l-.09-.22-.19-.09-1.51-1.82,0-.14-.72-.35L97,17.2l-.3-.09-1.36-.84-1.07-.56,0-.08-.16-.05-1.55-.92-.11-.21L92,14.33l-.82-.63-.27-.14h-.26l-.78-.06-1.74-.27H86.74L85,13l-.91-.31-2,.44L81,13.21H79.85l-1.41.22-.81.06H76.41L74.94,14l-1.88.81-1.67.82-.41.1-.24.16-2,.67-1.49,1.06-.63.21-.55.43-1.9.71-2.25,1.48h0v0l-1.82,1.17h0l-2.67,1.79h0v0l-2.5,1.64L53.08,26.6l-2,2h0L48.33,31.3l-.36.15-.14.28-1.77,1.33-1.39,2-.37.2-.21.5-2,2L39.7,40.45l-2.19,2.46-1.64,2.47h0L34,48.11h0l-1.81,2.72-.16.09-.08.24L29.69,54,28,56.6h0l-1.71,2.53L24.54,62.3l-.13.07-.08.27L22.77,65,21.7,67.58l0,0v.06l-1.23,2.76-.11.07-.08.31-1.39,2.46-1,2.5L17,78.87l-.33.47-.19.69L15,82.35l-.48,2.26-.17.28-.15.68-1,2.18-.55,3.07-.06.09,0,.34-.86,3-.31,2.67-.05.1-.07.51-.93,3.56-.55,2.48,0,2.9,0,0-.18,1.2-.77,2.42,0,2.69,0,2.71h0l0,.4-.31,2.83,0,2.3.25,2.48,0,.44v10L9.31,136l.23,1.33v4l.47,1.91.13,1v4.51l.2,1.17.49,1.48.22,1.34v5.5l.27,2.15,0,.54v5.33l.3.8.26,1.45v.14l0,.58.08.28.16,1.13v.14l0,.44.48,1.84,0,.4-.09.92h0v0l-.08.63.5,1.67-.26.63L13,178l.91.91v.21l-.05.62-2.4,2.19-.6-.56h-.31l-.73-.73-1.78-.74-.11-.26-.2-.11-.16-.22-.75-.48-.1-.19-.3-.11-1.17-2.15-.13-.87v-.13L5,174.58l-.62-1.74-.22-.5,0-.85-.09-.24L3.83,170l0-.09v-.45l-.33-.77-.34-1.64v-3l0-1.18v-1.63l-.27-2.16,0-.53v-5.09L2.4,152.3l-.09-.52-.08-.13-.3-1.8-.06-.7V144.8l-.48-1.91-.13-1V138l-.69-2.06-.22-1.34V124.21l-.29-2.46,0-.48H0l0-2.73v0l0-.38.26-2.83,0-2.5-.05-3.32v-.08l.16-1.15.69-2.44L1,103.11V103l.07-.78.55-3.07,0,0,0-.16.78-3.34.23-2.71,0-.1.08-.64L3.62,89l.53-3.44.14-.26.17-.84,1-2.27.48-2.56.29-.5.27-1,1.46-2.49L8.65,73l.11-.15.06-.36L10,69.37l.17-.21.07-.31,1.41-2.57,1.09-2.46,1.15-3,.32-.41.15-.5,1.71-2.55,1.73-3.17.11-.07.08-.25,1.82-2.76h0l1.83-2.75.16-.09.08-.24,2.3-2.87,1.71-2.57h0l1.82-2.73h0l1.82-2.73.26-.14.15-.38,2.41-2.72,2.4-2.74.15-.07L35,31l1.77-1.77,1.53-2.33.74-.4.42-.83L41.59,24,44,21.55h0v0l2.13-2.12.16-.07.08-.16,2.09-1.84.38-.13L49,17l2.7-1.83h0l0,0,2.71-1.81h0l1.74-1.2h0v0L59,10.22l.6-.18.49-.38L61.87,9l1.56-1.11.74-.24.62-.46,2.37-.79,1.44-.74.21,0,.13-.11L71,4.58l.14,0,.07-.06,2.38-.92,1.89-.36h1.66L78.5,3l1-.09h1l2.15-.48,1.15-.13h1.22l1.57.25,1.06.34h1l.68,0L91,3.15H92.2l2.28.53,1.86.9.17.27L97.1,5l1,.76,1.09.65,1,.48.16.15.22.06L102,8l1.69.84.65,1.06,1.36.73.45.67,1.16,1.39,1,1,.3.72,1,1.4.18.54L111.34,18l.8,1.82.71,1.2.19.64.32.44.32,1,.36.48.15.44.41.45.9,1.79.27,1.12.24.42.23,1.41.35,1,.73,1.41.6,2.49v.72l.87,1.64.26,2.11.08-.33.72-1.4.45-1.43.94-1.29.33-.82.27-.29.2-.62.17-.24.11-.47.65-1.38.21-.76.43-.63.26-.91,1.42-2.2.85-1.61.41-.43.14-.41,1-1.2.28-.13.13-.33,1.19-1.18.52-1,.24-.26.09-.3,1.23-1.84.77-.42.42-.86.71-.55,1.11-1.36.84-.4.37-.7.86-.57.58-.89,1.14-.62.61-1.09,1.48-.91.43-.12.33-.28.54-.23h0l.07-.23,2.64-2,1.67-.63.56-.41.44-.15.43-.39,1.79-.9L150.45,3l.44-.23,1.25-.18.09,0,.52-.4,2.38-.9.85-.15.24-.14L158,.69l1-.08h.52l1.72-.43,1.4-.18h6.68Z"/>
          <path class="cls-1" d="M79.73,169.59l.22.07h.78l1.43.24,1.13.37h.48l1.42.23.19.07,1,0,.89,0h.11l1.94.59.71,0h.08l1.18.41.71.12.62.23h.23l1.23.17.24.06h.26l1.21,0h.09l2.12.88h.31l1.94.57h.18l2.2.52.64.32.28.45.23.1.08,0,.14.07.41.16.63.59.55,1.28,1.61,2.63-1.45,3.49-3.5,1.45-2.21-.52-.63-.32-.28-.45-2-.62h-.83l-2.14-.94-.6,0-.1-.05L92,181.35l-.19-.07-.15,0-.21-.09-1.37-.29-1.49-.65h-.36l-.19-.09-1.82-.55-1.62,0,0,0-1.31-.21-.22-.07h-.49L81.13,179,80,178.66h-.79l-1.42-.23-.21-.07H55.31l-1.43.24-.77.06H40l-1.48,0h-2.7l-1.09-.13-.68-.17H29.64l-.86,0H26.51l-1.1.2-.83.08H22.33l-.7.26-1.6.31-.34,0h-.18l-.9,0-.7.25h-.27l-1.85.52h-.27l-.24.06-.94.12-2.2.7-.35,0-.37,0-.17.07,0,.06-.92.56-1.8.49H8.2l-.3,0H7.81l0,.09-.35.22h0l-.18.43-2.06.86H5.1l-.92,0,0,0H4l-2-.84-.84-2,.84-2,.92-.38.24-.59.64-.26.47-.58.81-.39,0-.06.06,0,.17-.3.56-.35.79-.22.41-.23.11,0h0l.29-.17.19-.5L10,173.23l.46,0,.47-.37,1.45-.49L13,172l.25,0,.26-.11.48-.09.17-.13,2-.64.4-.18.74,0,.85-.37.94,0,.75-.32,1.57-.31.08,0,1.21,0h1.43l1-.22,1-.1h2.68l.86,0h5l1.09.14.68.17h2.15l1.48,0H52.74l1.43-.23.77-.07H78.31Z"/>
          <path class="cls-1" d="M137.15,169.31l1.48,0h.86l2,.61,1.15,0,.07,0,1.81.29H146l1.15,0,1.5,0,.32.13,3.48,1.15.15.21.34.14h1.49l1.22,0,.16.07,2.76.69.63.34.1.09.54.1.38,0,.33,0,.27.13,1.72.35.73.31,1.41.25h.1l.93.07.95.46.82.27h.06l.07,0,.17,0,1.06,0h.25l.53,0,.83.05.13.06,1.21.18,1,.31.17,0,.71.11.38.21,1.14.26.27.14.77.69h0l.73.05h1.84l.61,0h0l.32,0,.92.1.18.1.12,0h.21l.61.1,0,0h1l.15.06.91.11.89.21,2.29,1.49.9,2.62-.9,2.62-2.32,1.49-.83.21-.94.11-.15.06h-1l-.05,0-.57.09-.25,0-.12,0-.18.1-.88.1-.35,0h0l-.6,0H177l-.71,0h0l-.75,0-.23,0-.07,0-.57.06-.54,0-1.48-.53-1.25.14-1.09-.1-.52-.1h-.1l-.49,0h-.29l-1.07,0-.19,0-.09,0-.88.06-.44,0-1.75-.47-.7,0h-.28l-1.67-.24h-.15l-2.21-.4-.4-.15h-.13l-1.81-.27-.54-.16-2.38-.68H153l-.78,0h-.26l-1.43-.57h-.57l-.87,0h-.16l-2.68-.85H146l-.54,0h-2.06l-1.77-.28H140.4l-2-.6-1.25,0H136.1l-1.46.6h-1.81l-1.84.31h-1.78l-.57.38-1.11.34,0,.06-.75.31-.22.54-.47.19-.46.58-3.72,1.15-.58,0-.62-.06L118,185.67l-1.31-.54,0-.13-.14-.07-1.72-4.41,1-2.7v0h0l.66-1.68.14-.07,0-.13.44-.18.26-.66.29-.14,0-.15.31-.22.14-.21.27-.09.11-.08,1-1.13.84-.24.58-.43.87-.29,1.78-.29.76-.24,3.26-1.34h2.41l1.83-.31h1.88l1.46-.6h1.91Z"/>
        </g>
        <path class="cls-1" d="M131.32,103.34l.82,0h3l1.65.24.11,0h.06l2.89.8.77.46,1.74.5.55.61.44.18.24.56.81.9,0,0,.75.31.91.91.22.56,0,0,0,0,.91.91.23.55.41.21.61.88.12.38.31.34.19.39.78,1.26.41,1.43.05.07.9,2.81.16.36v.3l.32,1.77,0,.08,0,.88.66,1.53,0,1.07.12.44.2,1.39,0,.08,0,.9v.11h0l0,1.82h0l0,1.46,0,.87v1.7l-.11,1.18-.19.94v.57l0,1.47v.09l-.64,2.7-.22.45-.13.71-.27.46-.21.88v.26l-.65,2.73-.61,1.22-.15.61-.4.61-.28,1-.79,1.32-.51,1-.59.63-.06.38-2.06,3.6-.32.12-1.46,2.61-.44.16-.16.29-.46.31-.2.4-2.22,2.42-.07,0,0,0-.34.2-.41.62-.89,1.43-.56.3-.33.79-1.06,1-.72,1.07-.37.88-1.12,1.1-.48,1-1.39,1.52-.22.45-.92.74-1.37,1.83-.8.4-.4.79-.46.35-1,1.39-.13.06-.06.18-1.22,1.53-.63.3-.31.63-1.5,1.2-.12,0,0,.08-.41.31-.68,1h0v0l-.64.92-.9.47-.48.93-1.21.88-3.52,1.16-4.22-1.75-1.74-4.21,2.32-4.71.37-.29,0-.07h0v0l1.22-1.85.9-.49.51-1,1.15-.86.91-.74.7-.86,1.43-2,.84-.43.43-.87.53-.39,1.32-1.76.69-.34.35-.73.48-.39.34-.67.84-.92.23-.57,1.07-1.09.61-1,.41-1,1.26-1.28.51-.89.15-.15.05-.17L130,155l1.28-.68.57-1,.19-.39,2-2.16.08-.16.12-.08,1.47-2.53.32-.12.67-1.17.45-1.09.21-.21.18-.36.15-.17.06-.21.44-.74.09-.37.27-.4.19-.81.29-.58v-.14l.06-.13.58-2.47.27-.54.17-.81.27-.43.21-.89v-1.29l.12-1.19.19-.93v-1.09l0-.88,0-1.48,0-1.81h0v-.27l-.11-.47-.14-1.29v-.13l0-.88-.55-1.42v-.12l0-.9v0l-.25-1.69v-.22l-.22-.76-.41-.71-.06-.19-.13-.15-.18-.35-.09-.15-.48-.48-.23-.56,0,0-.05,0-.44-.44-1.86-1.37-.26-.08-.45-.26-1-.17H131.8l-.12,0-.14.11-.42.14-.12.05h0l-.71.24-.6.38-.66.19-.25.25-.51.21h0l-.07,0-.23.45-.9.6-.32.09,0,.13-1.82,1.82-1.55.64-.48.48-.32.47-.44.23-.25.6L120.53,123l-.31.42-.06.11-.23.26-.07.1-.11.37-.19.28-.07.23-.43.58-.22.73-.48.71-.17.42-.19,1.17-.31.95-.14.18-.31,1.15,0,0V132h0v3.23l0,.49v.39l.06.13v.47l0,.14-1.74,4.19-4.19,1.73-4-1.58-.64-.59-.21-.48-1.65-3.26,0-.27,0-.65v-.61l0-.57v-.12l0-.44,0-.05,0-.89h0l0-.92.43-.95-.15-.31-.37-1.74-.23-.54-.39-.6-.15-.46-.72-.91-.28-.7,0,0,0,0,0,0-.29-.43-.52-.22-.91-.9-.65-1.57,0-.06-.51-.21-.45-.45-2-1.44-.07-.21-.12-.07-.26-.4-.17-.18,0-.08-.09,0-.52-.56-.86-.85-.19-.48-.59-.22-.46-.38-.56-.17-.67-.8-.79-.63-.15-.5-.28-.09-.25-.17-.47-.2-1,.3-1,.75-.78.26-.49.19-1.15.87-.2.07-.06.11-.47.32-1.6,1.6-.3.5-.16.45-.16.21-.08.34-.92,1.85L82,123l0,.18-.19.31-.07.74-.31,1.55-.24.39-.21.9-.29.58-.17.86-.24.39-.21.9-.35.71v.88h0l-.56,2.35,0,.1v.58l-.19,1.16.11.67.08.9h0v.05l.19.51.35,1.87v.82l.34.38,1.29,3.35v.18l0,.74.19.28h0l.85,1.23.08.23.12.07.54.92.31,1.14.2.35.64.4.1.19.32.11,1,1.68.32.2L86,152l.24.08,1.6,2.34.11.41.51.89.57.81.66.7.87.91.35.86.78,1.34,0,.18.85.35.91.91.19.46.33.18.4.59.63.65.2.51.66.66.26.62.78,1.11.1.34.26.39.12.36.15.1.21.41.46.72.21.72.17.17.07,0v0l.19.2.23.55.32.18.41.66.07.07,0,.08.06.1.09.3.31.82.19.08.29.71.44.52h0l.53.22.05.12.12.06.38,1,.27.11.89,2.15-.89,2.15-2.15.89h-.91l-.68-.28h-.23l-2.12-.66-.36-.26,0,0-.28-.11-.66-.56,0,0-.07,0-.13-.26-.32-.21-.15-.28-.48-.19v0h0l-.37-.89-.34-.77-.08-.05-.33-.46-.75-.75-.05,0-.53-1.28-.47-.34L91,173l-.27-.4-.13-.41-.18-.12-.19-.37-.46-.68-.2-.67-.2-.2-.06,0v0l-.25-.26-.2-.5-.67-.65-.21-.49-.37-.2-.36-.53-.84-.6-.65-.26-.94-.89-.27-.64-1-1.53,0-.24-.89-.84-.14-.32-.28-.14-.94-1.18-.1-.29-.18-.1L80.06,159l0-.12-.31-.18-.11-.19-.36-.13-1.06-1.55-.33-.19-.22-.38L77,156l-.94-.89-.28-.66-1-1.64-.13-.55,0,0-.89-1.09h0l-1-1.17-.21-.59-.52-.65-.35-.85-.31-1.53-.09,0-.65-.86-.36-1.08-.56-.89L69.35,142l-.11-1,0,0v-.23l-.24-.57-.36-1.73-.07-.15,0-.57-.24-1.46-.08-.9h0l.27-1.67,0-.1v-1l.55-2.36,0-.1v-.57l.27-1.67.32-1,.17-.24.1-.41.29-.58.17-.86.24-.4.22-.89.28-.59.07-.31V122h0l.75-2.72.92-1.53.61-.35.51-1,.16-.54.33-.45.18-.68.93-1.54.48-.27.3-.72,1.52-1.52.91-.91.58-.24.22-.42.8-.53.79-.59,0,0h0l.23-.17.49-.17,1-.82,1.49-.6.13,0,.15-.06,0,0L85,106l.91-.37,1.47-.89,2.75-.77H92l2.2.91,2.73.78.3.18.25.08,2.77,1.91,0,.08,0,0,0,0,.89.32.56.43.65.2.62.78.78.61.19.62.37.37.57.53,0,.08.09,0,.61.6.19.46.35.26.1.06,0,0,.09.06.77.33.51.51.47.31,0,.05.09,0,2,2.6,0,0,.23.42.12-.07.18-.52.92-1.22.34-.17.17-.42,1.12-1.12.32-.47.44-.24.24-.6.91-.91.61-.61h0l1.56-.64.8-.81.1-.3.7-.51.87-1,.71-.2.49-.36.11,0,.43-.43.74-.3,1.29-1,.22-.08.29-.2,1-.3.66-.51,3.43-1.14h.16l1,0,.7-.26Z"/>
      </g>
    </g>
  </g>
</svg>
