<svg xmlns="http://www.w3.org/2000/svg" viewBox="0 0 133.93 170.56">
  <defs>
    <style>
      .cls-1 {
        fill: #8b64e3;
      }
    </style>
  </defs>
  <title>Asset 4</title>
  <g id="Layer_2" data-name="Layer 2">
    <g id="Layer_1-2" data-name="Layer 1">
      <g>
        <path class="cls-1" d="M97.63,0l3.61.45.11.06.53.06,3.26.8,3.26.4.34.18,1.23.26,3.18,1.35.11.09.16,0L117,5.54l.3.28.35.11,2.69,1.82L123,9.51v0h0l2.69,1.83.49.93,1,.5,2.12,3,2.08,2.53.41,1.14.76,1.17.73,2.91.06.46,0,.09.51,3.74,0,.48-1,2.45-2.45,1-2.43-1-2.47-2.42-2.19-1.63-.3-.61-.66-.3-2.25-2.67-.1-.28-.2-.1-1.59-2.23-1.8-1.17h0l-2.71-1.8h0L111.39,16l-3.13-1.56-2.19-.94-2.78-.35-.11-.06-.59-.07-3.23-.83-2.86-.35-2.88,0-3.45.39L86,13l-1.14.11H81l-3.39.73h-.09l0,0-4.12.82-3.64,1.21-.25,0-.1.06-4.79,1.31-3.36,1.12-3.55,1.94-.27.07-.18.16-3.82,1.69-3.71,2-3.43,2.11h0l-3.44,2.15-2.79,2-2.57,2.21-2,2.32-.54.26-.24.51-2.36,1.88-2.2,2.48-1.66,2.4-.22.11-.11.31L26,45.5,24.1,48.22l-1.67,2.94-.18.1-.1.34L20.46,54l-.65,2.26-.14.21-.09.43L18.2,60h0L17,62.72l-.82,3.18,0,0,0,.11-.93,3.16h0l-.93,3.06-.92,3.48h0L12.52,79l-.46,3.69h0v0l-.52,3.6h0L11,89.84l-.5,4,0,0V94L10,96.72l0,3.67-.07,4.46v0l0,.58-.42,3,.31,2.49,0,.59v.07l-.05,3.58h0l0,3.13h0l0,2.81.36,2.79h0l.41,3.11.39,2.6.06.69v.06l0,2.32.35,2.28.39,2.13v0h0l.4,2.16.39,1.67,0,.17,0,0,.4,2.18.32,1.43.74,2,.28,1.47v.51l.43.91.1.45.15.22.36,1.34.14,1v.27l.48,1.26.09.12,0,.12.1,0,.38.49.74,2.16v.17l0,.66.17.32.4,1.53v0l.36.88h.51L20.82,163l-2.24,2.23h-.66l-.06.06-.43,0H17.3l-.06.06h-.43l0,0-1.56-.57-.47-.4-.09-.07-1.05-.44-.39-.93-.32-.44-.42-.23-.08-.14-.27-.08-.51-.38-.1-.18-.24-.1-1-2.32,0-.24-.33-.3,0,0h0l-.69-1.4-.26-.23,0-.05-.07,0L7.6,154.23l0-.7L7.34,153l-.82-1.55-.41-1.62L6,149.66l0-.58-.63-1.5-.07-.37-.12-.16-.48-1.75,0-.2,0-.06-.46-2.14-.44-1.64,0-.19,0,0-.47-2.2v0h0l-.48-2.2v-.14l0,0-.48-2.65-.07-.72v0l0-2.32-.41-2.29v-.14l-.48-3.1h0l-.49-3.09,0-.65h0L.6,118.28h0l0-3.12h0L.51,111.9l-.45-2.76L0,108.36l0-.5.36-3.3-.06-4.18h0l-.06-4v-.08l0-.59L.68,92.6l.38-4h0v0L1.44,85h0l.39-3.58.38-4,0-.09.07-.57.85-3.63h0L4,69.54l0,0v-.09l.85-3.18h0l.85-3.1.86-3.51.15-.23.11-.55L8.2,55.66h0l1.18-2.81L10.19,50l.51-.74.29-.9,2.08-2.91,1.67-2.91.19-.11.11-.37,2.28-3.13.1,0,.06-.16,2-2.48,1.58-2.48.24-.13.15-.4L24.1,30l.43-.2.21-.44,2.28-2,1.92-2.34.47-.22.22-.48,3.12-2.67L33,21.6l.1-.19,3.1-2.25.26-.08.08-.14,3.56-2.23h0l3.53-2.24.23-.06L44,14.3l4-2.24.3-.08.21-.18,3.79-1.68L56,8l.64-.17.41-.3,4-1.33.26,0,.09-.06L66.14,4.8,70,3.53l.57-.1.17-.1,4.43-.89L79,1.56l1.35-.16h3.87L88.06.6l.5,0,.08,0,4-.45.63,0h0l3.57,0h.05Z"/>
        <path class="cls-1" d="M70.68,158.39l.9,0,3.1,1.39L76,163l-1.27,3.16-2.32,1v0l-.56.22-.22.1h0l-1.76.7-.33.17-.22,0-.07,0h0l-1.74.41H67.3l-1.35,0h-.06l-.83,0h-.13l-.66.21-1.38.21h-.64l-.65.21-.23,0-.07.05-1.76.44-1.12.14H54l-1.18.29-1.11.14h-.06l-2.21,0H47.16l-1.79,0h0l-1.79,0-2.23,0h0l-1.8,0h0l-2.25-.06h-.06l-1.33-.05-1.77-.05h-.06l-1.35-.06h-.15l-1.35-.11L31,170l-1-.2-.81-.34-.3,0-1.27-.12h0l-1.77-.17,0,0-.27,0-.76-.14-1.23-.15h-.12l-.62-.1H20.38l-.39,0-.4,0-.4,0-.55-.61-.36-.14-.2-.47-1.46-1.63L18.08,164l.2-.48.38-.16.54-.59.4,0,.38-.05.4,0h2.44l.61-.1.13,0h0l1.21-.15.74-.14.3,0,0,0,1.76-.16h0l1.27-.12.79-.11.52,0,.91.11.74.17.66-.05h.18l1.33-.07h.08l1.77,0,1.31-.05h.08l2.23-.05h0l1.78,0h0l2.24,0h0l1.78,0h0l1.79,0h2.28l1.69,0,1.26-.31,1-.13h0l1.34,0h3.11l1.07-.27,1.1-.38,1.52-.27h.57l.57-.2,1.55-.27h.82l.83,0h.43l1.21-.29,1.63-.67h.27l1.07-.41Z"/>
        <path class="cls-1" d="M102.15,38.68l2.28.45,0,0,.2,0,1,.25h1.49L111,40.69l.77.57.6.15.21.14.5.09,2.29.89.19.15.3.07,1.83.91.43.4.45.15,1.37,1,1.34.67.3.28.34.1,1.37.91.27.49.67.28,1.35,1.35,1.85,4.47-.17,1.37.11.49.09.83-1,2.52L124,60.12l-1.68.11H122l-.72-.05-1.1-.16-2.37-1.3-1.18-.48-.9-.9-.49-.33-1.48-.74-.49-.45-.48-.16-1.31-1-1.06-.53-1.58-.65-1.38-.35-1-.66-1.19-.4-.14-.1h-.2l-1.43-.18-1.67-.41-1.46-.3H97l-1.57.31-1.26.13H92.49l-2.14.36L89.28,52h-.76l-1.33.66-1.31.31-.49.28-2.21.37L81,54.31h0l-1.64.55L78,56l-.34.12-.36.36-1.8,1.08-2,1.74-1.56,1.6h0l-2.2,2.27,0,0,0,0L67.8,65l-1.51,2.21-.21.1-.12.32-1.5,1.82-1.59,2.7h0L61.4,74.68l-.7,2.12-.11.15-.06.29-1.36,3.17-.37.44-.15.52-1.2,1.79-.64,2.58-.15.22-.1.53-.84,2.11-.67,2-.37,2.58-.12.21-.13.84-.76,2.27-.4,2.27h0l-.38,2.14,0,2.62h0v0l0,2.24h0v0L52.75,108l.3,2.15.3,1.77.7,2.29.27,1.73v.77l.49.86.34,1.27.34.59.34,1.88.73,2.31.08.55.1.15L57,125.6l.81,1.35.08.27.18.2.85,1.78.22,1,.23.38.44,2.17.18.77.36.55.08.29.21.23.88,1.76.13.53.21.29.31,1,.69,1.42h0l.85,1.71.51,2.09.7,1,.41,1.31v0h0l.32,1,.25.55v.05l.41.87v.06l.4.88v0h0l.41.88v0h0l.4.88.13.61.72.85,0,.07,0,0,.17.29.17.2.64.27.43,1,.17.21.77.85,0,.09.07,0,.4.47.56,1.52.37.16.29.71.24.13,0,.12.8-.33,2.06.85.86,2.06-.86,2.06-.06.06-.32.81h0l0,0-.12,0-.21.5-.26.11,0,.06-.6.25v0l-.32.13-.17.23-.25.06-.12.16-.39.1-.12,0-.52.32-.4.08-.79.08-.83-.28H70l-1.24-.44-.15-.05h0l-1.13-.4-.12-.2-.18-.07-.09-.22-.75-.28-.08-.15-.15-.07-.12-.28-.72-.28-.15-.27-.48-.19,0-.07-.06,0-.41-1-.14-.3-.67-.6-.4-.34,0-.05-.07,0-.24-.45-.13-.11-.56-.2-.49-.42h0l-.49-.41-.25-.56-.79-.66-.56-.23-.19-.42-.55-.46-.51-1.72-.2-.36v0h0l-.47-.85v0h0l-.47-.85v0h0l-.46-.85v0h0l-.46-.85-.12-.47-.21-.29-.47-1.3v0h0l-.07-.2,0,0-.5-1.22-1.07-2.46V145l-.34-.68h0l-.89-1.7-.11-.46-.21-.28-.35-1L51,139.77l-.68-1-.32-1-.49-.76-.46-1.74,0-.28-.05-.08-.29-1.47-.49-.94L47,130.46l-.31-1.11-.36-.6-.41-1.9-.81-2.29-.09-.51-.1-.17-.29-1.28-.85-1.36L43,118.55l-.1-.24,0-1.29-.62-1.74-.09-.51-.12-.18-.51-2.18,0-.2,0-.06-.51-2.63-.1-1,0,0-.06-2.68v0h0l0-2.23v0h0l0-3.13v-.07l.06-.93.42-2.73h0L41.56,94l.11-.2L41.8,93l.72-2.16.37-2.61L43,88l.13-.8L44,84.47l.08-.12,0-.23.74-1.85.8-3.21.51-.78.34-1.11L48,75l1-2.39.82-2.46.29-.41.17-.63,1.78-3.17h0l1.74-3.13.38-.39.12-.37L55.93,60l1.61-2.51.53-.28.31-.74,2.23-2.24,0,0,0,0L63,51.91h0l1.81-1.76.29-.11.12-.24,2.69-2.21.36-.12.39-.4,1.88-1.13,1.89-1.51,1-.34,1-.72L77,42.49h0l2.64-.88.78-.13.21-.11,1.76-.3,1.81-.91,2.83-.67h1.71l2.14-.36L92,39h1.62l1.59-.32,1.2-.12h0l2.69,0h1.84Z"/>
        <path class="cls-1" d="M131.17,23.33l.43,1,.32.24L132,25v0h0l.08.29.09.23.09.52.07.05.16.85.07.68-.15,1-.29,1-.13.09-.13.52-.19.37,0,.12,0,.5-.29,1.49-.61,1.51-.22,1-.06.11-.05.31-.67,2-.3,1.57-.26.43-.24.89-1,1.75L127.4,45l-1.66,2.5-.52.17-.16.26-1.42.76-1.69.43-2.32-.86-1.2-2.15-.24-1.59-.06-.75.21-1.39,1-3.15.34-.46.18-.63,1.07-1.67.36-1.19.15-.21.08-.39,1.06-2.19h0l.57-1.23.12-.07.08-.3.59-1,.06-.49.45-.87.4-1.1,1-1.15,0-.08,0-.11.07,0,.08-.47.1-.27.09-.3h0l.11-.41.33-.24.42-1,2.06-.86Z"/>
      </g>
    </g>
  </g>
</svg>
