<svg xmlns="http://www.w3.org/2000/svg" viewBox="0 0 111.02 347.36">
  <defs>
    <style>
      .cls-1 {
        fill: #3874dd;
      }
    </style>
  </defs>
  <title>Asset 2</title>
  <g id="Layer_2" data-name="Layer 2">
    <g id="Layer_1-2" data-name="Layer 1">
      <g>
        <path class="cls-1" d="M50.17,148.17l1.93,1.05.38.63.82.42.67.93.55,1.69-1.44,2,0,.07,0,0-.51.69-1.07.33-.62.1-.11,0-2.15.22-.47,0H48l-2.24,0h0l-1.79,0-2.23,0h0l-1.75,0H37.74l-1.79,0h0l-1.79,0h0l-2.24-.05h0l-1.79,0h0l-1.8-.06h-.1l-1.56-.09L25,156h-.22l-.91-.12-.71-.19-.8.07-.26,0-.46-.08-.36.36h0l-1.87.77H18l-.9,0-.08-.08-1.63-.68-.76-1.83.76-1.83,1.64-.68.07-.08.89,0h.38l.12-.13.51-.21.18-.28.88-.44.31-.08,0-.07.48-.16.86-.54.78-.22.13-.17,1-.25,1.33-.62,1.26-.28.18-.08,1.77-.11h.13l1.78-.06h0l1.78,0h0l2.23-.05h0l1.78,0h0l1.79,0H40l1.75,0h0l2.23,0,1.78,0h0l2.23,0h.06Z"/>
        <g>
          <path class="cls-1" d="M10.52,172.37l0,1,.78,2.35.12.75v5.76l.17,3.72,1,4.17.07.52v0l.21,4.45v0h0l.21,4.81.61,5.69h0l.61,5.32v.32h0l.17,6.7h0l.16,5.71.54,7.05V231h0l.07,6.7h0l.08,7.16h0l.07,7.15v0h0l0,7.61h0l0,7.16h0v7.86l-.41,6.59v6.9L14.68,294l-.41,6.08v5.23l-.06.7-.77,4.55.06,4.08v.06l-.07.79-.8,4.33-.36,3.42h0l-.41,3.61,0,0,0,.25-.33,1.8,0,1.78,0,1.77v.09l-.24,1.45-.46,1.38h0l-.45,1.34-.37.51L9.31,339,6,340.37,2.76,339,1.4,335.74v-.22l0-.46.05-.1.18-1.13.45-1.37h0l.22-.64,0-1.08,0-2.22v0l.09-.86.44-2.07.47-3.42h0l.52-3.6,0,0,0-.22.87-4.05.06-4v0l.07-.73.88-4.51v-5.28l.47-6.27h0l.43-5.66v-6.84l.47-6.56v-7.46h0l0-7.16h0l0-7.61h0v0l.08-7.15h0l.07-7.16h0l.07-6.6-.35-7v-.31L7.33,218l.16-6.56-.27-5.24v0h0L7,200.33v-.15H7V200l.22-4.92h0l.2-4.2-.65-4.22,0-.39v-.11l.17-4v-5.39l-.77-2.32L6,173.78v-.07l0-1.35,2.26-2.18Z"/>
          <path class="cls-1" d="M43.94,158.7l1.93,1.06.38.63.82.42.67.92.55,1.7-1.44,1.95,0,.07h0l-.51.7-1.07.33-.62.09-.11.06-2.15.22-.47,0h-.06l-2.24,0h0l-1.79,0-2.23,0h0l-1.75,0H31.51l-1.79,0h0l-1.79,0h0l-2.24-.05h0l-1.79,0h0l-1.8-.06h-.11l-1.55-.09-1.57.09h-.22l-.91-.11-.71-.19-.8.07H15.9l-.46-.07-.37.36h0l-1.86.77H11.75l-.9,0-.08-.08-1.63-.68-.76-1.83.76-1.84,1.64-.67.07-.08.89-.05h.38l.12-.12.51-.21.18-.28.88-.44.3-.08.06-.07.48-.16.86-.54.78-.22.13-.17.95-.25L18.7,159l1.26-.28.18-.08,1.77-.11H22l1.78-.06h0l1.79-.05h0l2.23,0h0l1.78,0h0l1.79,0h2.25l1.75,0h0l2.23,0,1.78,0h0l2.23,0h.06Z"/>
          <path class="cls-1" d="M49.41,159.63l.84,1.85,0,.8,0,.34,0,.33v3.5l.12,2.11.15,1.73v.05h0l.15,2.21v.07h0l.15,3.1.17,2.84.59,2.81v.12l.65,3.51v0h0l.64,3.51.06.65v0l.12,4.46v0h0l.09,3.83.52,4.71h0l.54,4.89,0,.47h0l.05,4.92v0h0l0,6.26h0l0,5.36h0l0,5.36v0h0l0,5.81V242l-.42,5.83h0l-.45,5.84h0l-.42,5.79,0,0,0,.39-.83,5v5.86l0,.38-.42,5.39h0l-.39,5.34h0l-.39,5.37h0v.05l-.36,4.23.06,4.21v.46l-.37,5h0v.11l-.37,3.59-.33,3.67.07,3.27v.05h0l.05,3.13h0l0,2.68h0l0,2.23h0v.95l.31.62.61,2.54h0v.11l0,1.35L51,326l.25,1.65-1.62,3.9-3.9,1.61-3.18-1-2-2.62-.47-1.29-.31-1.74,0-.08,0-1-.32-.64-.6-2.53v-.09l0-2.24h0l0-2.23,0-2.68h0l0-3.13h0v-.05l.08-3.58v0l0-.55.53-4.05h0v0l.52-3.48.49-4.56.06-4.24h0l0-.49.51-4.44.51-5.31h0l.5-5.36h0l.45-5.11v-6.05l.06-.8.87-5.17.45-5.62h0l.45-5.8h0l.46-5.63v-6.08l0-5.81h0v0l0-5.37h0l0-5.37h0l0-6.26h0l.05-4.73-.34-4.73h0l-.35-4.91,0-.33v-.1l.09-4h0l.11-4.27-.23-3.38v0h0l-.24-3.58h0l-.25-3.1v-.52l.19-3.11.15-3.1h0v-.06l.16-2.23h0v0l.14-1.75.13-2.1V163l0-.31,0-.36,0-.81.85-1.84,1.89-.76Z"/>
          <path class="cls-1" d="M3.72,336.67l.91.45h0l.42.21,1-.18.4,0,.56.09.64-.13.59-.06.49,0,1,.18H9.8l.9.21.81-.06.81-.08.37,0,.85.11,1.39.36,0,0,.1,0,.86.26h.81l1,.16,1.26.39,1.24.31H23l1.11.18,1.22.4,1.68.42h0l1.32.32h3.14l1.31,0h1l1-.51.35-.09.06-.09,1.31-.47,1.24-.22.57,0,1.69.27L42.43,342l-1.15,2.31-1.34,1-.93.31-.19.27-1.08.33-1.5.75-1.62.39h0l-1.79,0h0l-1.31,0H27.91l-.9-.11-1.81-.47h0l-1.75-.44,0,0-.2,0-.8-.27H21.14l-1.34,0h0l-.76-.09-1.82-.46,0,0-.26-.05-.77-.27h-.75l-1.16-.2-1.36-.48,0,0-.1,0-.87-.36-.37,0-1.29-.09-.16-.08-.86-.18L7.88,343l-.19-.3-.63-.24-.15-.14-.56-.12-.59-.73,0,0-.82-.15H4.64l-.88-.21-.9-.45h0l-.47-.24H2L0,338.41l2-2h.9Z"/>
        </g>
        <path class="cls-1" d="M74.56.29h1l3.1.94.63.42L80,2l1,.17.67.38L83,3l1,.59L85.21,4l.75.55.79.27,1.1.82.88.58.32.08L90.17,7l1,.38L92.69,8.6l1.15.67.3.53.81.33.73.73.95.57.6,1.06,1.15.62.77,1.15,1.2,1,.3.64.59.29.9,1.2.1.31.18.1,1.18,1.89.76.76.29.69.47.26,1.53,2.39L107,25l.42.69.24,1.09.66,1.71.78,1.48V30l.05,0,.89,1.79.62,2.58h0V36l.19.93.11,1.15v7.86l0,1.77v1.87l0,2.38V52h0l-.3,1.82v1.22l-.44,2.2-.65,1.55-.12.15-.06.23-.5,1-.19,1.23-1.09,2-.17,1.07-.35.62-.38,1.4-.8,1.33-.83,1.65-.38.42-.14.42-.62.83-.73,1.41-.5.54-.16.47L101.35,75l-.59,1-.82,1.63-1.56,1.71-.15.29-1.12.82-1.21,1-.51.5-.55.92,0,0,0,.08-2.29,2-1.81.86-.52.12-1.2,1-.22.08-.07.14L87.43,88l-1.63.52L85,88.9l-.78.1h0l-.26.07-.19.16-1.82.82-1.06.24-.33.18-1.19.18-1.46.43-.15,0,0,0-.9.23-1.27.17h-.26l-1.18-.06-1.45-.06-.87,0-1.19,0-.14-.06-2.05-.53-.59-.32-.8-.41-.59-.2L65.23,89l-.64-.27-.91-.91-.43-1-.48-.49-.33-.79L61.5,84l-.08-.38-.12-.17-.8-2.62v-3l.22-1.42.59-1.87h0l0-.16V73.25L62,70.81l.64-1.08.43-1.3.27-.86.17-.25.11-.45L64.59,65l.17-.11.11-.38.23-.35L65.49,63l.17-.24.1-.41.93-1.86.25-.15.19-.55.92-1.23.11-.05.06-.16,1.54-1.81.17-.09.08-.2.92-.9.36-.16.15-.29.67-.5.37-.5.83-1.34,1.07-.59.58-1,.73-.42.38-.49.21-.1,2.06-1.48.44-.14,0-.06.75-.36.35-.65.84-.56,1.13-.83.68-.22.4-.28.3-.3.46-.18.16-.32.9-.59L86,43.57l1.78-.72.2-.18,3-1.15h.23l.92,0,.06,0,.69.08h0l.37,0,.08,0,.42,0h.05l.38.05.39.2h0l.61.1.14.08.5.08.3.11,0,0h.12l1,.52h0l0,0,0,0,.27-.11,1.88.78V38.62l-.18-.93-.12-1.15v-.78L99,35.17l0-.08,0,0L98,33.25,98,32.9l-.15-.2L97,30.31l-.13-.72-.13-.23-.09-.49-.61-1-.75-.74-.3-.72-.48-.28-1.4-2.23-.37-.49-1.33-1.11L91,21.49l-.67-.36-.52-.78-.47-.28L89,19.56l-.77-.31-.75-.75-1-.6-.16-.29-.46-.16-.84-.7h0l-.7-.46-1-.3-1.84-1.22-.06-.11-.17-.06-.49-.37-1-.33-.4-.3-.6-.16-.65-.38-.84-.13-.43-.25-1.12-.27-1.85-.92h-.2l-1.77-.29-.05,0h-2.3l-1.82-.06-1.81,0-.55-.25L62.73,9.9l-.61-.48L61.9,9l-.48-.22L60.82,8l-.76-2.11.75-2.1L61,3.52l.08-.19.83-1,.25-.61.43-.18L63.1,1,65.65.25,66,.11l1.81,0h0L69.57,0h3.22ZM97.68,48.9l-.27-.11-.07,0h0l0,0-1,.51-.12,0,0,.06-.24.08-.54.1-.15.08-.57.09h0l-.39.21-.35,0h0l-.47.06-.08,0-.35,0h0l-.12,0-1,.44-.27.28h0l-2,.87-.12.08-.54.56-.61.26L87,53.67l-.16.06-.57.44-.21.07-.07.13-.22.14-.41.57-.08,0-2.15,1.61-.42.14,0,.05-.89.46-.44.77-.49.31-.3.52-.19.11-.11.34-.92,1.23L78.7,61l-.31.63-.94.71-.5.5-1.29,1.57-.59.79-.58,1.16L74,67.88l-.35.46-.17.58-.45.67-.65,1.3-.22.62-.59,1.76-.27.37-.15.54-.25.41v.59l-.23,1.38-.31,1h0v0l-.36,1.06v1.16l0,.17.38.57,0,0,.35.86.16,0,.8.38h.09l.87,0,1.45-.06h.33l.07,0,.13,0,.06-.05,1.77-.66.41-.07.16-.11.86-.21.84-.46.53-.41,1.18-.4,1-.6.55-.12.11-.08L83.77,77l.74-.27.9-.7.6-.23.12-.07.12-.2.47-.26.29-.72,1.19-1.23.37-.16.16-.32,1.5-1.21.06,0,0,0,.19-.15.36-.72.11-.12,0-.17.91-1.55.32-.18.2-.56,1.08-1.29.61-1.26.4-.44.14-.44.61-.8.7-1.4.14-.15,0-.2.31-.51.13-1,1-1.89.16-1.15.22-.41.3-1.31.79-1.61.11-.3v-1l.29-1.82,0-.06,0-1.49V48.13Z"/>
      </g>
    </g>
  </g>
</svg>
